<mxfile host="Electron" modified="2024-06-11T12:49:16.157Z" agent="Mozilla/5.0 (Windows NT 10.0; Win64; x64) AppleWebKit/537.36 (KHTML, like Gecko) draw.io/24.2.5 Chrome/120.0.6099.109 Electron/28.1.0 Safari/537.36" etag="3f-sIquru8zE6Z9axfS9" version="24.2.5" type="device">
  <diagram id="-BZ0ff9cZ_Cm8y7vT02F" name="Page-2">
    <mxGraphModel dx="2690" dy="1794" grid="1" gridSize="10" guides="1" tooltips="1" connect="1" arrows="1" fold="1" page="1" pageScale="1" pageWidth="827" pageHeight="1169" background="none" math="0" shadow="0">
      <root>
        <mxCell id="0" />
        <mxCell id="1" parent="0" />
        <mxCell id="wvlJ24B5t-1MsnUAMkos-1" value="DeptID" style="rounded=0;whiteSpace=wrap;html=1;" parent="1" vertex="1">
          <mxGeometry x="40" y="140" width="120" height="40" as="geometry" />
        </mxCell>
        <mxCell id="wvlJ24B5t-1MsnUAMkos-4" value="" style="line;strokeWidth=1;rotatable=0;dashed=0;labelPosition=right;align=left;verticalAlign=middle;spacingTop=0;spacingLeft=6;points=[];portConstraint=eastwest;" parent="1" vertex="1">
          <mxGeometry x="75" y="170" width="40" height="10" as="geometry" />
        </mxCell>
        <mxCell id="a8BJOltBxwC39LnN3ahx-1" value="Dept_Name" style="rounded=0;whiteSpace=wrap;html=1;" parent="1" vertex="1">
          <mxGeometry x="160" y="140" width="120" height="40" as="geometry" />
        </mxCell>
        <mxCell id="a8BJOltBxwC39LnN3ahx-2" value="Dept_Location" style="rounded=0;whiteSpace=wrap;html=1;" parent="1" vertex="1">
          <mxGeometry x="280" y="140" width="120" height="40" as="geometry" />
        </mxCell>
        <mxCell id="hWAsWK3gZAh7LIfFcOfh-1" value="Department" style="text;html=1;align=center;verticalAlign=middle;whiteSpace=wrap;rounded=0;" parent="1" vertex="1">
          <mxGeometry x="40" y="110" width="60" height="30" as="geometry" />
        </mxCell>
        <mxCell id="hWAsWK3gZAh7LIfFcOfh-2" value="Ins_ID" style="rounded=0;whiteSpace=wrap;html=1;" parent="1" vertex="1">
          <mxGeometry x="980" y="140" width="90" height="40" as="geometry" />
        </mxCell>
        <mxCell id="dsHnBPBJ-Kd6LcaZb0Xf-1" value="" style="line;strokeWidth=1;rotatable=0;dashed=0;labelPosition=right;align=left;verticalAlign=middle;spacingTop=0;spacingLeft=6;points=[];portConstraint=eastwest;" parent="1" vertex="1">
          <mxGeometry x="1010" y="170" width="30" height="10" as="geometry" />
        </mxCell>
        <mxCell id="dsHnBPBJ-Kd6LcaZb0Xf-2" value="Ins_Fname" style="rounded=0;whiteSpace=wrap;html=1;" parent="1" vertex="1">
          <mxGeometry x="1070" y="140" width="80" height="40" as="geometry" />
        </mxCell>
        <mxCell id="l9eW3IBBsTHhRa-ebO4m-1" value="Ins_Lname" style="rounded=0;whiteSpace=wrap;html=1;" parent="1" vertex="1">
          <mxGeometry x="1150" y="140" width="80" height="40" as="geometry" />
        </mxCell>
        <mxCell id="l9eW3IBBsTHhRa-ebO4m-2" value="Ins_Degree" style="rounded=0;whiteSpace=wrap;html=1;" parent="1" vertex="1">
          <mxGeometry x="1230" y="140" width="80" height="40" as="geometry" />
        </mxCell>
        <mxCell id="CgHxRMjKi0-11owd-s0B-1" value="Age" style="rounded=0;whiteSpace=wrap;html=1;" parent="1" vertex="1">
          <mxGeometry x="1310" y="140" width="80" height="40" as="geometry" />
        </mxCell>
        <mxCell id="CgHxRMjKi0-11owd-s0B-2" value="Password" style="rounded=0;whiteSpace=wrap;html=1;" parent="1" vertex="1">
          <mxGeometry x="1390" y="140" width="100" height="40" as="geometry" />
        </mxCell>
        <mxCell id="CgHxRMjKi0-11owd-s0B-3" value="Contact_Email" style="rounded=0;whiteSpace=wrap;html=1;" parent="1" vertex="1">
          <mxGeometry x="1490" y="140" width="90" height="40" as="geometry" />
        </mxCell>
        <mxCell id="TL3G5oaM-S1gC9Ldj1g4-2" value="Ins_Salary" style="rounded=0;whiteSpace=wrap;html=1;" parent="1" vertex="1">
          <mxGeometry x="1580" y="140" width="80" height="40" as="geometry" />
        </mxCell>
        <mxCell id="qAX2JoK7tN3CNwDgiRTq-1" value="Dept_id" style="rounded=0;whiteSpace=wrap;html=1;" parent="1" vertex="1">
          <mxGeometry x="1660" y="140" width="80" height="40" as="geometry" />
        </mxCell>
        <mxCell id="qAX2JoK7tN3CNwDgiRTq-2" value="F.K" style="text;html=1;align=center;verticalAlign=middle;whiteSpace=wrap;rounded=0;" parent="1" vertex="1">
          <mxGeometry x="1670" y="110" width="60" height="30" as="geometry" />
        </mxCell>
        <mxCell id="qAX2JoK7tN3CNwDgiRTq-3" value="" style="endArrow=classic;html=1;rounded=0;exitX=0.66;exitY=1.1;exitDx=0;exitDy=0;exitPerimeter=0;entryX=0.5;entryY=1;entryDx=0;entryDy=0;" parent="1" source="qAX2JoK7tN3CNwDgiRTq-1" target="wvlJ24B5t-1MsnUAMkos-1" edge="1">
          <mxGeometry width="50" height="50" relative="1" as="geometry">
            <mxPoint x="1270" y="350" as="sourcePoint" />
            <mxPoint x="70" y="210" as="targetPoint" />
            <Array as="points">
              <mxPoint x="1713" y="230" />
              <mxPoint x="100" y="240" />
            </Array>
          </mxGeometry>
        </mxCell>
        <mxCell id="k8PttnqM8kf9fUnVE_Tl-1" value="Instructor" style="text;html=1;align=center;verticalAlign=middle;whiteSpace=wrap;rounded=0;" parent="1" vertex="1">
          <mxGeometry x="990" y="110" width="60" height="30" as="geometry" />
        </mxCell>
        <mxCell id="k8PttnqM8kf9fUnVE_Tl-3" value="St_ID" style="rounded=0;whiteSpace=wrap;html=1;" parent="1" vertex="1">
          <mxGeometry x="-1070" y="145" width="80" height="40" as="geometry" />
        </mxCell>
        <mxCell id="k8PttnqM8kf9fUnVE_Tl-4" value="St_Fname" style="rounded=0;whiteSpace=wrap;html=1;" parent="1" vertex="1">
          <mxGeometry x="-990" y="145" width="80" height="40" as="geometry" />
        </mxCell>
        <mxCell id="k8PttnqM8kf9fUnVE_Tl-5" value="St_Lname" style="rounded=0;whiteSpace=wrap;html=1;" parent="1" vertex="1">
          <mxGeometry x="-910" y="145" width="80" height="40" as="geometry" />
        </mxCell>
        <mxCell id="k8PttnqM8kf9fUnVE_Tl-6" value="Email" style="rounded=0;whiteSpace=wrap;html=1;" parent="1" vertex="1">
          <mxGeometry x="-830" y="145" width="80" height="40" as="geometry" />
        </mxCell>
        <mxCell id="vXTvfXUfsogu4SpotkyS-1" value="St_Address" style="rounded=0;whiteSpace=wrap;html=1;" parent="1" vertex="1">
          <mxGeometry x="-750" y="145" width="80" height="40" as="geometry" />
        </mxCell>
        <mxCell id="vXTvfXUfsogu4SpotkyS-2" value="St_Age" style="rounded=0;whiteSpace=wrap;html=1;" parent="1" vertex="1">
          <mxGeometry x="-670" y="145" width="80" height="40" as="geometry" />
        </mxCell>
        <mxCell id="vXTvfXUfsogu4SpotkyS-3" value="Supervised_ID" style="rounded=0;whiteSpace=wrap;html=1;" parent="1" vertex="1">
          <mxGeometry x="-590" y="145" width="80" height="40" as="geometry" />
        </mxCell>
        <mxCell id="vXTvfXUfsogu4SpotkyS-4" value="" style="line;strokeWidth=1;rotatable=0;dashed=0;labelPosition=right;align=left;verticalAlign=middle;spacingTop=0;spacingLeft=6;points=[];portConstraint=eastwest;" parent="1" vertex="1">
          <mxGeometry x="-1055" y="170" width="50" height="10" as="geometry" />
        </mxCell>
        <mxCell id="vXTvfXUfsogu4SpotkyS-5" value="Student" style="text;html=1;align=center;verticalAlign=middle;whiteSpace=wrap;rounded=0;" parent="1" vertex="1">
          <mxGeometry x="-1090" y="110" width="60" height="30" as="geometry" />
        </mxCell>
        <mxCell id="vXTvfXUfsogu4SpotkyS-6" value="F.K" style="text;html=1;align=center;verticalAlign=middle;whiteSpace=wrap;rounded=0;" parent="1" vertex="1">
          <mxGeometry x="-590" y="115" width="60" height="30" as="geometry" />
        </mxCell>
        <mxCell id="vXTvfXUfsogu4SpotkyS-8" value="" style="endArrow=classic;html=1;rounded=0;" parent="1" edge="1">
          <mxGeometry width="50" height="50" relative="1" as="geometry">
            <mxPoint x="-565" y="185" as="sourcePoint" />
            <mxPoint x="-1055" y="185" as="targetPoint" />
            <Array as="points">
              <mxPoint x="-565" y="235" />
              <mxPoint x="-695" y="235" />
              <mxPoint x="-1055" y="235" />
            </Array>
          </mxGeometry>
        </mxCell>
        <mxCell id="7Jmrnf3U-qmycfsZ2kTZ-1" value="Dept_id" style="rounded=0;whiteSpace=wrap;html=1;" parent="1" vertex="1">
          <mxGeometry x="-510" y="145" width="80" height="40" as="geometry" />
        </mxCell>
        <mxCell id="7Jmrnf3U-qmycfsZ2kTZ-2" value="F.K" style="text;html=1;align=center;verticalAlign=middle;whiteSpace=wrap;rounded=0;" parent="1" vertex="1">
          <mxGeometry x="-510" y="115" width="60" height="30" as="geometry" />
        </mxCell>
        <mxCell id="VEiVXa7yfGY4IS9369Aq-1" value="" style="endArrow=classic;html=1;rounded=0;entryX=0.162;entryY=1.06;entryDx=0;entryDy=0;entryPerimeter=0;" parent="1" target="wvlJ24B5t-1MsnUAMkos-1" edge="1">
          <mxGeometry width="50" height="50" relative="1" as="geometry">
            <mxPoint x="-460" y="185.2" as="sourcePoint" />
            <mxPoint x="-80" y="185" as="targetPoint" />
            <Array as="points">
              <mxPoint x="-460" y="235.2" />
              <mxPoint x="59" y="240" />
            </Array>
          </mxGeometry>
        </mxCell>
        <mxCell id="XvFHqlHX6NzcbiilA_W_-1" value="Branch_ID" style="rounded=0;whiteSpace=wrap;html=1;" parent="1" vertex="1">
          <mxGeometry x="-120" y="490" width="80" height="40" as="geometry" />
        </mxCell>
        <mxCell id="RYWnw9hEQXMhnf1c4LKz-1" value="" style="line;strokeWidth=1;rotatable=0;dashed=0;labelPosition=right;align=left;verticalAlign=middle;spacingTop=0;spacingLeft=6;points=[];portConstraint=eastwest;" parent="1" vertex="1">
          <mxGeometry x="-112.5" y="510" width="65" height="10" as="geometry" />
        </mxCell>
        <mxCell id="RYWnw9hEQXMhnf1c4LKz-2" value="Branch_Name" style="rounded=0;whiteSpace=wrap;html=1;" parent="1" vertex="1">
          <mxGeometry x="-40" y="490" width="80" height="40" as="geometry" />
        </mxCell>
        <mxCell id="RYWnw9hEQXMhnf1c4LKz-3" value="Track_ID" style="rounded=0;whiteSpace=wrap;html=1;" parent="1" vertex="1">
          <mxGeometry x="-520" y="490" width="80" height="40" as="geometry" />
        </mxCell>
        <mxCell id="RYWnw9hEQXMhnf1c4LKz-4" value="" style="endArrow=none;html=1;rounded=0;" parent="1" edge="1">
          <mxGeometry relative="1" as="geometry">
            <mxPoint x="-510" y="520" as="sourcePoint" />
            <mxPoint x="-440" y="520" as="targetPoint" />
          </mxGeometry>
        </mxCell>
        <mxCell id="RYWnw9hEQXMhnf1c4LKz-5" value="Track_Name" style="rounded=0;whiteSpace=wrap;html=1;" parent="1" vertex="1">
          <mxGeometry x="-440" y="490" width="80" height="40" as="geometry" />
        </mxCell>
        <mxCell id="RYWnw9hEQXMhnf1c4LKz-6" value="Intake_ID" style="rounded=0;whiteSpace=wrap;html=1;" parent="1" vertex="1">
          <mxGeometry x="-770" y="490" width="80" height="40" as="geometry" />
        </mxCell>
        <mxCell id="RYWnw9hEQXMhnf1c4LKz-7" value="" style="line;strokeWidth=1;rotatable=0;dashed=0;labelPosition=right;align=left;verticalAlign=middle;spacingTop=0;spacingLeft=6;points=[];portConstraint=eastwest;" parent="1" vertex="1">
          <mxGeometry x="-760" y="520" width="60" height="10" as="geometry" />
        </mxCell>
        <mxCell id="RYWnw9hEQXMhnf1c4LKz-8" value="Intake_Name" style="rounded=0;whiteSpace=wrap;html=1;" parent="1" vertex="1">
          <mxGeometry x="-690" y="490" width="80" height="40" as="geometry" />
        </mxCell>
        <mxCell id="t_eg9MBSSPMAXhVCp6g8-1" value="Branch_Id" style="rounded=0;whiteSpace=wrap;html=1;" parent="1" vertex="1">
          <mxGeometry x="-270" y="145" width="80" height="40" as="geometry" />
        </mxCell>
        <mxCell id="t_eg9MBSSPMAXhVCp6g8-2" value="F.K" style="text;html=1;align=center;verticalAlign=middle;whiteSpace=wrap;rounded=0;" parent="1" vertex="1">
          <mxGeometry x="-420" y="115" width="60" height="30" as="geometry" />
        </mxCell>
        <mxCell id="M60_p1jwvfa8uFFJm6gg-3" value="Intake_id" style="rounded=0;whiteSpace=wrap;html=1;" parent="1" vertex="1">
          <mxGeometry x="-430" y="145" width="80" height="40" as="geometry" />
        </mxCell>
        <mxCell id="M60_p1jwvfa8uFFJm6gg-4" value="Track_id" style="rounded=0;whiteSpace=wrap;html=1;" parent="1" vertex="1">
          <mxGeometry x="-350" y="145" width="80" height="40" as="geometry" />
        </mxCell>
        <mxCell id="M60_p1jwvfa8uFFJm6gg-5" value="&lt;span style=&quot;color: rgb(240, 240, 240); font-family: Helvetica; font-size: 12px; font-style: normal; font-variant-ligatures: normal; font-variant-caps: normal; font-weight: 400; letter-spacing: normal; orphans: 2; text-align: center; text-indent: 0px; text-transform: none; widows: 2; word-spacing: 0px; -webkit-text-stroke-width: 0px; white-space: normal; background-color: rgb(27, 29, 30); text-decoration-thickness: initial; text-decoration-style: initial; text-decoration-color: initial; display: inline !important; float: none;&quot;&gt;F.K&lt;/span&gt;" style="text;whiteSpace=wrap;html=1;" parent="1" vertex="1">
          <mxGeometry x="-335" y="115" width="50" height="40" as="geometry" />
        </mxCell>
        <mxCell id="M60_p1jwvfa8uFFJm6gg-6" value="&lt;span style=&quot;color: rgb(240, 240, 240); font-family: Helvetica; font-size: 12px; font-style: normal; font-variant-ligatures: normal; font-variant-caps: normal; font-weight: 400; letter-spacing: normal; orphans: 2; text-align: center; text-indent: 0px; text-transform: none; widows: 2; word-spacing: 0px; -webkit-text-stroke-width: 0px; white-space: normal; background-color: rgb(27, 29, 30); text-decoration-thickness: initial; text-decoration-style: initial; text-decoration-color: initial; display: inline !important; float: none;&quot;&gt;F.K&lt;/span&gt;" style="text;whiteSpace=wrap;html=1;" parent="1" vertex="1">
          <mxGeometry x="-255" y="115" width="50" height="40" as="geometry" />
        </mxCell>
        <mxCell id="M60_p1jwvfa8uFFJm6gg-7" value="" style="endArrow=classic;html=1;rounded=0;exitX=0.5;exitY=1;exitDx=0;exitDy=0;entryX=0.75;entryY=0;entryDx=0;entryDy=0;" parent="1" source="t_eg9MBSSPMAXhVCp6g8-1" target="XvFHqlHX6NzcbiilA_W_-1" edge="1">
          <mxGeometry width="50" height="50" relative="1" as="geometry">
            <mxPoint x="-50" y="185" as="sourcePoint" />
            <mxPoint x="-300" y="300" as="targetPoint" />
          </mxGeometry>
        </mxCell>
        <mxCell id="M60_p1jwvfa8uFFJm6gg-8" value="" style="endArrow=classic;html=1;rounded=0;exitX=0.5;exitY=1;exitDx=0;exitDy=0;entryX=0.75;entryY=0;entryDx=0;entryDy=0;" parent="1" source="M60_p1jwvfa8uFFJm6gg-4" target="RYWnw9hEQXMhnf1c4LKz-3" edge="1">
          <mxGeometry width="50" height="50" relative="1" as="geometry">
            <mxPoint x="-370" y="350" as="sourcePoint" />
            <mxPoint x="-150" y="450" as="targetPoint" />
          </mxGeometry>
        </mxCell>
        <mxCell id="M60_p1jwvfa8uFFJm6gg-9" value="" style="endArrow=classic;html=1;rounded=0;exitX=0.5;exitY=1;exitDx=0;exitDy=0;entryX=0.62;entryY=-0.05;entryDx=0;entryDy=0;entryPerimeter=0;" parent="1" source="M60_p1jwvfa8uFFJm6gg-3" target="RYWnw9hEQXMhnf1c4LKz-6" edge="1">
          <mxGeometry width="50" height="50" relative="1" as="geometry">
            <mxPoint x="-370" y="350" as="sourcePoint" />
            <mxPoint x="-320" y="300" as="targetPoint" />
          </mxGeometry>
        </mxCell>
        <mxCell id="M60_p1jwvfa8uFFJm6gg-10" value="Intake" style="text;html=1;align=center;verticalAlign=middle;whiteSpace=wrap;rounded=0;" parent="1" vertex="1">
          <mxGeometry x="-770" y="450" width="60" height="30" as="geometry" />
        </mxCell>
        <mxCell id="M60_p1jwvfa8uFFJm6gg-11" value="Track" style="text;html=1;align=center;verticalAlign=middle;whiteSpace=wrap;rounded=0;" parent="1" vertex="1">
          <mxGeometry x="-520" y="450" width="60" height="30" as="geometry" />
        </mxCell>
        <mxCell id="M60_p1jwvfa8uFFJm6gg-12" value="Branch" style="text;html=1;align=center;verticalAlign=middle;whiteSpace=wrap;rounded=0;" parent="1" vertex="1">
          <mxGeometry x="-120" y="460" width="60" height="30" as="geometry" />
        </mxCell>
        <mxCell id="3qN9uV-imd_ZddtqY5SO-1" value="Manager_ID" style="rounded=0;whiteSpace=wrap;html=1;" parent="1" vertex="1">
          <mxGeometry x="-1420" y="460" width="110" height="40" as="geometry" />
        </mxCell>
        <mxCell id="3qN9uV-imd_ZddtqY5SO-6" value="" style="line;strokeWidth=1;rotatable=0;dashed=0;labelPosition=right;align=left;verticalAlign=middle;spacingTop=0;spacingLeft=6;points=[];portConstraint=eastwest;" parent="1" vertex="1">
          <mxGeometry x="-1405" y="490" width="80" height="10" as="geometry" />
        </mxCell>
        <mxCell id="DEIuSgbLa4sT8vbsFYwq-2" value="Manager_FName" style="rounded=0;whiteSpace=wrap;html=1;" parent="1" vertex="1">
          <mxGeometry x="-1310" y="460" width="110" height="40" as="geometry" />
        </mxCell>
        <mxCell id="66xUK75Aa28wAE4NSw8Y-2" value="Email" style="rounded=0;whiteSpace=wrap;html=1;" parent="1" vertex="1">
          <mxGeometry x="-1100" y="460" width="110" height="40" as="geometry" />
        </mxCell>
        <mxCell id="GfMdhIYGuqRo9XVo6KBL-1" value="Training_Manager" style="text;html=1;align=center;verticalAlign=middle;whiteSpace=wrap;rounded=0;" parent="1" vertex="1">
          <mxGeometry x="-1410" y="430" width="60" height="30" as="geometry" />
        </mxCell>
        <mxCell id="NA5_mN5ObauiuYuVCIMV-1" value="Manager_ID" style="rounded=0;whiteSpace=wrap;html=1;" parent="1" vertex="1">
          <mxGeometry x="-190" y="145" width="90" height="40" as="geometry" />
        </mxCell>
        <mxCell id="NA5_mN5ObauiuYuVCIMV-2" value="&lt;span style=&quot;color: rgb(240, 240, 240); font-family: Helvetica; font-size: 12px; font-style: normal; font-variant-ligatures: normal; font-variant-caps: normal; font-weight: 400; letter-spacing: normal; orphans: 2; text-align: center; text-indent: 0px; text-transform: none; widows: 2; word-spacing: 0px; -webkit-text-stroke-width: 0px; white-space: normal; background-color: rgb(27, 29, 30); text-decoration-thickness: initial; text-decoration-style: initial; text-decoration-color: initial; display: inline !important; float: none;&quot;&gt;F.K&lt;/span&gt;" style="text;whiteSpace=wrap;html=1;" parent="1" vertex="1">
          <mxGeometry x="-175" y="115" width="50" height="40" as="geometry" />
        </mxCell>
        <mxCell id="NA5_mN5ObauiuYuVCIMV-3" value="" style="endArrow=classic;html=1;rounded=0;exitX=0.25;exitY=1;exitDx=0;exitDy=0;entryX=0.88;entryY=-0.12;entryDx=0;entryDy=0;entryPerimeter=0;" parent="1" source="NA5_mN5ObauiuYuVCIMV-1" target="3qN9uV-imd_ZddtqY5SO-1" edge="1">
          <mxGeometry width="50" height="50" relative="1" as="geometry">
            <mxPoint x="-480" y="350" as="sourcePoint" />
            <mxPoint x="-430" y="300" as="targetPoint" />
            <Array as="points">
              <mxPoint x="-167" y="270" />
              <mxPoint x="-1323" y="270" />
              <mxPoint x="-1323" y="310" />
            </Array>
          </mxGeometry>
        </mxCell>
        <mxCell id="XmC6jPj5qANk3hfHi2Rr-1" value="Intake_ID" style="rounded=0;whiteSpace=wrap;html=1;" parent="1" vertex="1">
          <mxGeometry x="-1090" y="620" width="80" height="40" as="geometry" />
        </mxCell>
        <mxCell id="XmC6jPj5qANk3hfHi2Rr-2" value="Manager_ID" style="rounded=0;whiteSpace=wrap;html=1;" parent="1" vertex="1">
          <mxGeometry x="-1200" y="620" width="110" height="40" as="geometry" />
        </mxCell>
        <mxCell id="ZtN8YkpiagrSXIm44f0z-1" value="" style="endArrow=classic;html=1;rounded=0;entryX=0.364;entryY=1;entryDx=0;entryDy=0;entryPerimeter=0;" parent="1" source="XmC6jPj5qANk3hfHi2Rr-2" target="3qN9uV-imd_ZddtqY5SO-1" edge="1">
          <mxGeometry width="50" height="50" relative="1" as="geometry">
            <mxPoint x="-1060" y="480" as="sourcePoint" />
            <mxPoint x="-1010" y="430" as="targetPoint" />
          </mxGeometry>
        </mxCell>
        <mxCell id="ZtN8YkpiagrSXIm44f0z-2" value="" style="endArrow=classic;html=1;rounded=0;exitX=0.5;exitY=0;exitDx=0;exitDy=0;entryX=0;entryY=0.75;entryDx=0;entryDy=0;" parent="1" source="XmC6jPj5qANk3hfHi2Rr-1" target="RYWnw9hEQXMhnf1c4LKz-6" edge="1">
          <mxGeometry width="50" height="50" relative="1" as="geometry">
            <mxPoint x="-1060" y="480" as="sourcePoint" />
            <mxPoint x="-1010" y="430" as="targetPoint" />
          </mxGeometry>
        </mxCell>
        <mxCell id="ZtN8YkpiagrSXIm44f0z-3" value="F.K&lt;span style=&quot;color: rgba(0, 0, 0, 0); font-family: monospace; font-size: 0px; text-align: start; text-wrap: nowrap;&quot;&gt;%3CmxGraphModel%3E%3Croot%3E%3CmxCell%20id%3D%220%22%2F%3E%3CmxCell%20id%3D%221%22%20parent%3D%220%22%2F%3E%3CmxCell%20id%3D%222%22%20value%3D%22Manager_ID%22%20style%3D%22rounded%3D0%3BwhiteSpace%3Dwrap%3Bhtml%3D1%3B%22%20vertex%3D%221%22%20parent%3D%221%22%3E%3CmxGeometry%20x%3D%22-1420%22%20y%3D%22460%22%20width%3D%22110%22%20height%3D%2240%22%20as%3D%22geometry%22%2F%3E%3C%2FmxCell%3E%3C%2Froot%3E%3C%2FmxGraphModel%3E&lt;/span&gt;" style="text;html=1;align=center;verticalAlign=middle;whiteSpace=wrap;rounded=0;" parent="1" vertex="1">
          <mxGeometry x="-1090" y="590" width="60" height="30" as="geometry" />
        </mxCell>
        <mxCell id="ZtN8YkpiagrSXIm44f0z-4" value="F.K&lt;span style=&quot;color: rgba(0, 0, 0, 0); font-family: monospace; font-size: 0px; text-align: start; text-wrap: nowrap;&quot;&gt;%3CmxGraphModel%3E%3Croot%3E%3CmxCell%20id%3D%220%22%2F%3E%3CmxCell%20id%3D%221%22%20parent%3D%220%22%2F%3E%3CmxCell%20id%3D%222%22%20value%3D%22Manager_ID%22%20style%3D%22rounded%3D0%3BwhiteSpace%3Dwrap%3Bhtml%3D1%3B%22%20vertex%3D%221%22%20parent%3D%221%22%3E%3CmxGeometry%20x%3D%22-1420%22%20y%3D%22460%22%20width%3D%22110%22%20height%3D%2240%22%20as%3D%22geometry%22%2F%3E%3C%2FmxCell%3E%3C%2Froot%3E%3C%2FmxGraphModel%3E&lt;/span&gt;" style="text;html=1;align=center;verticalAlign=middle;whiteSpace=wrap;rounded=0;" parent="1" vertex="1">
          <mxGeometry x="-1175" y="590" width="60" height="30" as="geometry" />
        </mxCell>
        <mxCell id="ZtN8YkpiagrSXIm44f0z-5" value="Intakes_addedby_Manager" style="text;html=1;align=center;verticalAlign=middle;whiteSpace=wrap;rounded=0;" parent="1" vertex="1">
          <mxGeometry x="-1285" y="600" width="60" height="30" as="geometry" />
        </mxCell>
        <mxCell id="o4q5HFx3iepvA4pG-e_q-1" value="Track_ID" style="rounded=0;whiteSpace=wrap;html=1;" parent="1" vertex="1">
          <mxGeometry x="-290" y="585" width="80" height="40" as="geometry" />
        </mxCell>
        <mxCell id="o4q5HFx3iepvA4pG-e_q-3" value="DeptID" style="rounded=0;whiteSpace=wrap;html=1;" parent="1" vertex="1">
          <mxGeometry x="-212.5" y="585" width="72.5" height="40" as="geometry" />
        </mxCell>
        <mxCell id="o4q5HFx3iepvA4pG-e_q-4" value="" style="line;strokeWidth=1;rotatable=0;dashed=0;labelPosition=right;align=left;verticalAlign=middle;spacingTop=0;spacingLeft=6;points=[];portConstraint=eastwest;" parent="1" vertex="1">
          <mxGeometry x="-1175" y="645" width="60" height="10" as="geometry" />
        </mxCell>
        <mxCell id="o4q5HFx3iepvA4pG-e_q-5" value="" style="line;strokeWidth=1;rotatable=0;dashed=0;labelPosition=right;align=left;verticalAlign=middle;spacingTop=0;spacingLeft=6;points=[];portConstraint=eastwest;" parent="1" vertex="1">
          <mxGeometry x="-1080" y="645" width="60" height="10" as="geometry" />
        </mxCell>
        <mxCell id="d-JkRksNRORTeoZ-44FY-1" value="Manager_ID" style="rounded=0;whiteSpace=wrap;html=1;" parent="1" vertex="1">
          <mxGeometry x="-400" y="585" width="110" height="40" as="geometry" />
        </mxCell>
        <mxCell id="d-JkRksNRORTeoZ-44FY-2" value="" style="line;strokeWidth=1;rotatable=0;dashed=0;labelPosition=right;align=left;verticalAlign=middle;spacingTop=0;spacingLeft=6;points=[];portConstraint=eastwest;" parent="1" vertex="1">
          <mxGeometry x="-375" y="610" width="60" height="10" as="geometry" />
        </mxCell>
        <mxCell id="d-JkRksNRORTeoZ-44FY-3" value="" style="line;strokeWidth=1;rotatable=0;dashed=0;labelPosition=right;align=left;verticalAlign=middle;spacingTop=0;spacingLeft=6;points=[];portConstraint=eastwest;" parent="1" vertex="1">
          <mxGeometry x="-280" y="610" width="60" height="10" as="geometry" />
        </mxCell>
        <mxCell id="d-JkRksNRORTeoZ-44FY-4" value="" style="line;strokeWidth=1;rotatable=0;dashed=0;labelPosition=right;align=left;verticalAlign=middle;spacingTop=0;spacingLeft=6;points=[];portConstraint=eastwest;" parent="1" vertex="1">
          <mxGeometry x="-206.25" y="610" width="60" height="10" as="geometry" />
        </mxCell>
        <mxCell id="d-JkRksNRORTeoZ-44FY-8" value="Updates_Adds_inTrack" style="text;html=1;align=center;verticalAlign=middle;whiteSpace=wrap;rounded=0;" parent="1" vertex="1">
          <mxGeometry x="-413" y="560" width="60" height="30" as="geometry" />
        </mxCell>
        <mxCell id="d-JkRksNRORTeoZ-44FY-9" value="F.K" style="text;html=1;align=center;verticalAlign=middle;whiteSpace=wrap;rounded=0;" parent="1" vertex="1">
          <mxGeometry x="-375" y="625" width="60" height="30" as="geometry" />
        </mxCell>
        <mxCell id="d-JkRksNRORTeoZ-44FY-10" value="F.K" style="text;html=1;align=center;verticalAlign=middle;whiteSpace=wrap;rounded=0;" parent="1" vertex="1">
          <mxGeometry x="-285" y="625" width="60" height="30" as="geometry" />
        </mxCell>
        <mxCell id="d-JkRksNRORTeoZ-44FY-11" value="F.K" style="text;html=1;align=center;verticalAlign=middle;whiteSpace=wrap;rounded=0;" parent="1" vertex="1">
          <mxGeometry x="-200" y="625" width="60" height="30" as="geometry" />
        </mxCell>
        <mxCell id="d-JkRksNRORTeoZ-44FY-12" value="" style="endArrow=classic;html=1;rounded=0;exitX=0.5;exitY=0;exitDx=0;exitDy=0;entryX=0;entryY=1;entryDx=0;entryDy=0;" parent="1" source="o4q5HFx3iepvA4pG-e_q-3" target="wvlJ24B5t-1MsnUAMkos-1" edge="1">
          <mxGeometry width="50" height="50" relative="1" as="geometry">
            <mxPoint x="-220" y="550" as="sourcePoint" />
            <mxPoint x="-170" y="500" as="targetPoint" />
          </mxGeometry>
        </mxCell>
        <mxCell id="d-JkRksNRORTeoZ-44FY-13" value="" style="endArrow=classic;html=1;rounded=0;exitX=0.5;exitY=0;exitDx=0;exitDy=0;entryX=0.5;entryY=1;entryDx=0;entryDy=0;" parent="1" source="o4q5HFx3iepvA4pG-e_q-1" target="RYWnw9hEQXMhnf1c4LKz-3" edge="1">
          <mxGeometry width="50" height="50" relative="1" as="geometry">
            <mxPoint x="-330" y="470" as="sourcePoint" />
            <mxPoint x="-460" y="530" as="targetPoint" />
          </mxGeometry>
        </mxCell>
        <mxCell id="d-JkRksNRORTeoZ-44FY-16" value="" style="endArrow=classic;html=1;rounded=0;entryX=0.876;entryY=1.08;entryDx=0;entryDy=0;entryPerimeter=0;" parent="1" source="d-JkRksNRORTeoZ-44FY-1" target="3qN9uV-imd_ZddtqY5SO-1" edge="1">
          <mxGeometry width="50" height="50" relative="1" as="geometry">
            <mxPoint x="-390" y="630" as="sourcePoint" />
            <mxPoint x="-700" y="420" as="targetPoint" />
            <Array as="points">
              <mxPoint x="-1320" y="580" />
            </Array>
          </mxGeometry>
        </mxCell>
        <mxCell id="24L-oZINn5mbl_H1Rf0T-1" value="DeptID" style="rounded=0;whiteSpace=wrap;html=1;" parent="1" vertex="1">
          <mxGeometry x="220" y="640" width="72.5" height="40" as="geometry" />
        </mxCell>
        <mxCell id="24L-oZINn5mbl_H1Rf0T-2" value="" style="line;strokeWidth=1;rotatable=0;dashed=0;labelPosition=right;align=left;verticalAlign=middle;spacingTop=0;spacingLeft=6;points=[];portConstraint=eastwest;" parent="1" vertex="1">
          <mxGeometry x="226.25" y="660" width="60" height="10" as="geometry" />
        </mxCell>
        <mxCell id="gEu2iFmj4NBLC9SXNSLi-1" value="Branch_ID" style="rounded=0;whiteSpace=wrap;html=1;" parent="1" vertex="1">
          <mxGeometry x="147.5" y="640" width="72.5" height="40" as="geometry" />
        </mxCell>
        <mxCell id="gEu2iFmj4NBLC9SXNSLi-2" value="Manager_ID" style="rounded=0;whiteSpace=wrap;html=1;" parent="1" vertex="1">
          <mxGeometry x="40" y="640" width="110" height="40" as="geometry" />
        </mxCell>
        <mxCell id="gEu2iFmj4NBLC9SXNSLi-3" value="" style="line;strokeWidth=1;rotatable=0;dashed=0;labelPosition=right;align=left;verticalAlign=middle;spacingTop=0;spacingLeft=6;points=[];portConstraint=eastwest;" parent="1" vertex="1">
          <mxGeometry x="153.75" y="660" width="60" height="10" as="geometry" />
        </mxCell>
        <mxCell id="gEu2iFmj4NBLC9SXNSLi-4" value="" style="line;strokeWidth=1;rotatable=0;dashed=0;labelPosition=right;align=left;verticalAlign=middle;spacingTop=0;spacingLeft=6;points=[];portConstraint=eastwest;" parent="1" vertex="1">
          <mxGeometry x="65" y="660" width="60" height="10" as="geometry" />
        </mxCell>
        <mxCell id="gEu2iFmj4NBLC9SXNSLi-5" value="F.K" style="text;html=1;align=center;verticalAlign=middle;whiteSpace=wrap;rounded=0;" parent="1" vertex="1">
          <mxGeometry x="80" y="610" width="60" height="30" as="geometry" />
        </mxCell>
        <mxCell id="gEu2iFmj4NBLC9SXNSLi-6" value="F.K" style="text;html=1;align=center;verticalAlign=middle;whiteSpace=wrap;rounded=0;" parent="1" vertex="1">
          <mxGeometry x="153.75" y="610" width="60" height="30" as="geometry" />
        </mxCell>
        <mxCell id="gEu2iFmj4NBLC9SXNSLi-7" value="F.K" style="text;html=1;align=center;verticalAlign=middle;whiteSpace=wrap;rounded=0;" parent="1" vertex="1">
          <mxGeometry x="250" y="610" width="60" height="30" as="geometry" />
        </mxCell>
        <mxCell id="gEu2iFmj4NBLC9SXNSLi-8" value="" style="endArrow=classic;html=1;rounded=0;entryX=0.75;entryY=1;entryDx=0;entryDy=0;exitX=0.348;exitY=-0.02;exitDx=0;exitDy=0;exitPerimeter=0;" parent="1" source="24L-oZINn5mbl_H1Rf0T-1" target="wvlJ24B5t-1MsnUAMkos-1" edge="1">
          <mxGeometry width="50" height="50" relative="1" as="geometry">
            <mxPoint x="-30" y="480" as="sourcePoint" />
            <mxPoint x="20" y="430" as="targetPoint" />
          </mxGeometry>
        </mxCell>
        <mxCell id="gEu2iFmj4NBLC9SXNSLi-9" value="" style="endArrow=classic;html=1;rounded=0;exitX=0.25;exitY=1;exitDx=0;exitDy=0;entryX=0.75;entryY=1;entryDx=0;entryDy=0;" parent="1" source="gEu2iFmj4NBLC9SXNSLi-6" target="XvFHqlHX6NzcbiilA_W_-1" edge="1">
          <mxGeometry width="50" height="50" relative="1" as="geometry">
            <mxPoint x="-30" y="480" as="sourcePoint" />
            <mxPoint x="80" y="360" as="targetPoint" />
          </mxGeometry>
        </mxCell>
        <mxCell id="gEu2iFmj4NBLC9SXNSLi-10" value="" style="endArrow=classic;html=1;rounded=0;entryX=0.695;entryY=1.02;entryDx=0;entryDy=0;entryPerimeter=0;" parent="1" target="3qN9uV-imd_ZddtqY5SO-1" edge="1">
          <mxGeometry width="50" height="50" relative="1" as="geometry">
            <mxPoint x="70" y="680" as="sourcePoint" />
            <mxPoint x="20" y="430" as="targetPoint" />
            <Array as="points">
              <mxPoint x="70" y="730" />
              <mxPoint x="-1050" y="730" />
              <mxPoint x="-1344" y="710" />
            </Array>
          </mxGeometry>
        </mxCell>
        <mxCell id="gEu2iFmj4NBLC9SXNSLi-11" value="Updates_Adds_inBranch" style="text;html=1;align=center;verticalAlign=middle;whiteSpace=wrap;rounded=0;" parent="1" vertex="1">
          <mxGeometry x="-10" y="615" width="60" height="30" as="geometry" />
        </mxCell>
        <mxCell id="PVdsulRRoyRLGpbpPCfO-1" value="Exam_ID" style="rounded=0;whiteSpace=wrap;html=1;" parent="1" vertex="1">
          <mxGeometry x="2170" y="155" width="80" height="40" as="geometry" />
        </mxCell>
        <mxCell id="PVdsulRRoyRLGpbpPCfO-2" value="Exam_Type&lt;span style=&quot;white-space: pre;&quot;&gt;&#x9;&lt;/span&gt;" style="rounded=0;whiteSpace=wrap;html=1;" parent="1" vertex="1">
          <mxGeometry x="2250" y="155" width="80" height="40" as="geometry" />
        </mxCell>
        <mxCell id="PVdsulRRoyRLGpbpPCfO-3" value="" style="line;strokeWidth=1;rotatable=0;dashed=0;labelPosition=right;align=left;verticalAlign=middle;spacingTop=0;spacingLeft=6;points=[];portConstraint=eastwest;" parent="1" vertex="1">
          <mxGeometry x="2180" y="185" width="60" height="5" as="geometry" />
        </mxCell>
        <mxCell id="MM9dPRIQdWDCT4B-1vAp-1" value="Start_Time" style="rounded=0;whiteSpace=wrap;html=1;" parent="1" vertex="1">
          <mxGeometry x="2330" y="155" width="80" height="40" as="geometry" />
        </mxCell>
        <mxCell id="MM9dPRIQdWDCT4B-1vAp-2" value="End_Time" style="rounded=0;whiteSpace=wrap;html=1;" parent="1" vertex="1">
          <mxGeometry x="2410" y="155" width="80" height="40" as="geometry" />
        </mxCell>
        <mxCell id="2xYf6BJAELaaOjBnpNOu-2" value="Exam" style="text;html=1;align=center;verticalAlign=middle;whiteSpace=wrap;rounded=0;" parent="1" vertex="1">
          <mxGeometry x="2180" y="120" width="60" height="30" as="geometry" />
        </mxCell>
        <mxCell id="ZMIodbei1cw6DdwBc5Od-1" value="Exam_ID" style="rounded=0;whiteSpace=wrap;html=1;" parent="1" vertex="1">
          <mxGeometry x="1920" y="310" width="80" height="40" as="geometry" />
        </mxCell>
        <mxCell id="ZMIodbei1cw6DdwBc5Od-2" value="" style="line;strokeWidth=1;rotatable=0;dashed=0;labelPosition=right;align=left;verticalAlign=middle;spacingTop=0;spacingLeft=6;points=[];portConstraint=eastwest;" parent="1" vertex="1">
          <mxGeometry x="1930" y="340" width="60" height="10" as="geometry" />
        </mxCell>
        <mxCell id="ZMIodbei1cw6DdwBc5Od-3" value="Ins_ID" style="rounded=0;whiteSpace=wrap;html=1;" parent="1" vertex="1">
          <mxGeometry x="1830" y="310" width="90" height="40" as="geometry" />
        </mxCell>
        <mxCell id="ZMIodbei1cw6DdwBc5Od-4" value="Year" style="rounded=0;whiteSpace=wrap;html=1;" parent="1" vertex="1">
          <mxGeometry x="2000" y="310" width="90" height="40" as="geometry" />
        </mxCell>
        <mxCell id="ZMIodbei1cw6DdwBc5Od-5" value="" style="line;strokeWidth=1;rotatable=0;dashed=0;labelPosition=right;align=left;verticalAlign=middle;spacingTop=0;spacingLeft=6;points=[];portConstraint=eastwest;" parent="1" vertex="1">
          <mxGeometry x="1845" y="340" width="60" height="10" as="geometry" />
        </mxCell>
        <mxCell id="ZMIodbei1cw6DdwBc5Od-6" value="" style="endArrow=classic;html=1;rounded=0;exitX=0;exitY=0.5;exitDx=0;exitDy=0;entryX=0.75;entryY=1;entryDx=0;entryDy=0;" parent="1" source="ZMIodbei1cw6DdwBc5Od-3" target="hWAsWK3gZAh7LIfFcOfh-2" edge="1">
          <mxGeometry width="50" height="50" relative="1" as="geometry">
            <mxPoint x="1650" y="80" as="sourcePoint" />
            <mxPoint x="1700" y="30" as="targetPoint" />
            <Array as="points">
              <mxPoint x="1048" y="320" />
              <mxPoint x="1048" y="290" />
            </Array>
          </mxGeometry>
        </mxCell>
        <mxCell id="ZMIodbei1cw6DdwBc5Od-7" value="" style="endArrow=classic;html=1;rounded=0;exitX=0.25;exitY=0;exitDx=0;exitDy=0;entryX=0;entryY=0.75;entryDx=0;entryDy=0;" parent="1" source="ZMIodbei1cw6DdwBc5Od-1" target="PVdsulRRoyRLGpbpPCfO-1" edge="1">
          <mxGeometry width="50" height="50" relative="1" as="geometry">
            <mxPoint x="1650" y="80" as="sourcePoint" />
            <mxPoint x="1700" y="30" as="targetPoint" />
          </mxGeometry>
        </mxCell>
        <mxCell id="ZMIodbei1cw6DdwBc5Od-8" value="F.K" style="text;html=1;align=center;verticalAlign=middle;whiteSpace=wrap;rounded=0;" parent="1" vertex="1">
          <mxGeometry x="1860" y="290" width="60" height="30" as="geometry" />
        </mxCell>
        <mxCell id="ZMIodbei1cw6DdwBc5Od-9" value="F.K" style="text;html=1;align=center;verticalAlign=middle;whiteSpace=wrap;rounded=0;" parent="1" vertex="1">
          <mxGeometry x="1940" y="290" width="60" height="30" as="geometry" />
        </mxCell>
        <mxCell id="ZMIodbei1cw6DdwBc5Od-10" value="Exams_Createdby_Instructor" style="text;html=1;align=center;verticalAlign=middle;whiteSpace=wrap;rounded=0;" parent="1" vertex="1">
          <mxGeometry x="1770" y="280" width="60" height="30" as="geometry" />
        </mxCell>
        <mxCell id="HiHw4JsrDSladpEvyTGX-1" value="Question_ID" style="rounded=0;whiteSpace=wrap;html=1;" parent="1" vertex="1">
          <mxGeometry x="1040" y="-210" width="80" height="40" as="geometry" />
        </mxCell>
        <mxCell id="HiHw4JsrDSladpEvyTGX-2" value="" style="line;strokeWidth=1;rotatable=0;dashed=0;labelPosition=right;align=left;verticalAlign=middle;spacingTop=0;spacingLeft=6;points=[];portConstraint=eastwest;" parent="1" vertex="1">
          <mxGeometry x="1050" y="-180" width="60" height="10" as="geometry" />
        </mxCell>
        <mxCell id="HiHw4JsrDSladpEvyTGX-4" value="Question_Text" style="rounded=0;whiteSpace=wrap;html=1;" parent="1" vertex="1">
          <mxGeometry x="1120" y="-210" width="80" height="40" as="geometry" />
        </mxCell>
        <mxCell id="HiHw4JsrDSladpEvyTGX-5" value="Question_Type" style="rounded=0;whiteSpace=wrap;html=1;" parent="1" vertex="1">
          <mxGeometry x="1201" y="-210" width="99" height="40" as="geometry" />
        </mxCell>
        <mxCell id="HiHw4JsrDSladpEvyTGX-6" value="Question" style="text;html=1;align=center;verticalAlign=middle;whiteSpace=wrap;rounded=0;" parent="1" vertex="1">
          <mxGeometry x="1030" y="-240" width="60" height="30" as="geometry" />
        </mxCell>
        <mxCell id="HiHw4JsrDSladpEvyTGX-7" value="Question_ID" style="rounded=0;whiteSpace=wrap;html=1;" parent="1" vertex="1">
          <mxGeometry x="1250" y="-370" width="80" height="40" as="geometry" />
        </mxCell>
        <mxCell id="HiHw4JsrDSladpEvyTGX-8" value="" style="endArrow=classic;html=1;rounded=0;exitX=0.25;exitY=1;exitDx=0;exitDy=0;entryX=0.875;entryY=0;entryDx=0;entryDy=0;entryPerimeter=0;" parent="1" source="HiHw4JsrDSladpEvyTGX-7" target="HiHw4JsrDSladpEvyTGX-1" edge="1">
          <mxGeometry width="50" height="50" relative="1" as="geometry">
            <mxPoint x="1410" y="-50" as="sourcePoint" />
            <mxPoint x="1460" y="-100" as="targetPoint" />
          </mxGeometry>
        </mxCell>
        <mxCell id="HiHw4JsrDSladpEvyTGX-9" value="" style="line;strokeWidth=1;rotatable=0;dashed=0;labelPosition=right;align=left;verticalAlign=middle;spacingTop=0;spacingLeft=6;points=[];portConstraint=eastwest;" parent="1" vertex="1">
          <mxGeometry x="1260" y="-340" width="60" height="10" as="geometry" />
        </mxCell>
        <mxCell id="HiHw4JsrDSladpEvyTGX-10" value="Correct_Answer" style="rounded=0;whiteSpace=wrap;html=1;" parent="1" vertex="1">
          <mxGeometry x="1330" y="-370" width="120" height="40" as="geometry" />
        </mxCell>
        <mxCell id="HiHw4JsrDSladpEvyTGX-11" value="F.K" style="text;html=1;align=center;verticalAlign=middle;whiteSpace=wrap;rounded=0;" parent="1" vertex="1">
          <mxGeometry x="1270" y="-390" width="60" height="30" as="geometry" />
        </mxCell>
        <mxCell id="HiHw4JsrDSladpEvyTGX-12" value="Question_Correct_Answer" style="text;html=1;align=center;verticalAlign=middle;whiteSpace=wrap;rounded=0;" parent="1" vertex="1">
          <mxGeometry x="1170" y="-400" width="60" height="30" as="geometry" />
        </mxCell>
        <mxCell id="HiHw4JsrDSladpEvyTGX-13" value="" style="line;strokeWidth=1;rotatable=0;dashed=0;labelPosition=right;align=left;verticalAlign=middle;spacingTop=0;spacingLeft=6;points=[];portConstraint=eastwest;" parent="1" vertex="1">
          <mxGeometry x="1360" y="-340" width="60" height="10" as="geometry" />
        </mxCell>
        <mxCell id="fCZqRz_6zcYw7XJbJvop-1" value="Exam_ID" style="rounded=0;whiteSpace=wrap;html=1;" parent="1" vertex="1">
          <mxGeometry x="1930" y="-40" width="80" height="40" as="geometry" />
        </mxCell>
        <mxCell id="fCZqRz_6zcYw7XJbJvop-2" value="" style="line;strokeWidth=1;rotatable=0;dashed=0;labelPosition=right;align=left;verticalAlign=middle;spacingTop=0;spacingLeft=6;points=[];portConstraint=eastwest;" parent="1" vertex="1">
          <mxGeometry x="1940" y="-10" width="60" height="10" as="geometry" />
        </mxCell>
        <mxCell id="fCZqRz_6zcYw7XJbJvop-3" value="Question_ID" style="rounded=0;whiteSpace=wrap;html=1;" parent="1" vertex="1">
          <mxGeometry x="1850" y="-40" width="80" height="40" as="geometry" />
        </mxCell>
        <mxCell id="BD0YeRxPt6IKmZhTOPkM-1" value="" style="line;strokeWidth=1;rotatable=0;dashed=0;labelPosition=right;align=left;verticalAlign=middle;spacingTop=0;spacingLeft=6;points=[];portConstraint=eastwest;" parent="1" vertex="1">
          <mxGeometry x="1860" y="-10" width="60" height="10" as="geometry" />
        </mxCell>
        <mxCell id="BD0YeRxPt6IKmZhTOPkM-2" value="" style="endArrow=classic;html=1;rounded=0;entryX=0.833;entryY=1;entryDx=0;entryDy=0;entryPerimeter=0;exitX=0;exitY=0.25;exitDx=0;exitDy=0;" parent="1" source="fCZqRz_6zcYw7XJbJvop-3" target="HiHw4JsrDSladpEvyTGX-2" edge="1">
          <mxGeometry width="50" height="50" relative="1" as="geometry">
            <mxPoint x="1350" y="80" as="sourcePoint" />
            <mxPoint x="1400" y="30" as="targetPoint" />
            <Array as="points">
              <mxPoint x="1100" y="-60" />
            </Array>
          </mxGeometry>
        </mxCell>
        <mxCell id="BD0YeRxPt6IKmZhTOPkM-3" value="F.K" style="text;html=1;align=center;verticalAlign=middle;whiteSpace=wrap;rounded=0;" parent="1" vertex="1">
          <mxGeometry x="1860" y="-70" width="60" height="30" as="geometry" />
        </mxCell>
        <mxCell id="BD0YeRxPt6IKmZhTOPkM-4" value="F.K" style="text;html=1;align=center;verticalAlign=middle;whiteSpace=wrap;rounded=0;" parent="1" vertex="1">
          <mxGeometry x="1940" y="-70" width="60" height="30" as="geometry" />
        </mxCell>
        <mxCell id="BD0YeRxPt6IKmZhTOPkM-5" value="Exam_Questions" style="text;html=1;align=center;verticalAlign=middle;whiteSpace=wrap;rounded=0;" parent="1" vertex="1">
          <mxGeometry x="1790" y="-70" width="60" height="30" as="geometry" />
        </mxCell>
        <mxCell id="BD0YeRxPt6IKmZhTOPkM-6" value="" style="endArrow=classic;html=1;rounded=0;entryX=0;entryY=0.25;entryDx=0;entryDy=0;exitX=0.333;exitY=1;exitDx=0;exitDy=0;exitPerimeter=0;" parent="1" source="fCZqRz_6zcYw7XJbJvop-2" target="PVdsulRRoyRLGpbpPCfO-1" edge="1">
          <mxGeometry width="50" height="50" relative="1" as="geometry">
            <mxPoint x="1840" y="80" as="sourcePoint" />
            <mxPoint x="1890" y="30" as="targetPoint" />
          </mxGeometry>
        </mxCell>
        <mxCell id="BD0YeRxPt6IKmZhTOPkM-9" value="Course_ID" style="rounded=0;whiteSpace=wrap;html=1;" parent="1" vertex="1">
          <mxGeometry x="164" y="-120" width="100" height="40" as="geometry" />
        </mxCell>
        <mxCell id="BD0YeRxPt6IKmZhTOPkM-10" value="" style="line;strokeWidth=1;rotatable=0;dashed=0;labelPosition=right;align=left;verticalAlign=middle;spacingTop=0;spacingLeft=6;points=[];portConstraint=eastwest;" parent="1" vertex="1">
          <mxGeometry x="184" y="-90" width="60" height="10" as="geometry" />
        </mxCell>
        <mxCell id="BD0YeRxPt6IKmZhTOPkM-11" value="Course_Name" style="rounded=0;whiteSpace=wrap;html=1;" parent="1" vertex="1">
          <mxGeometry x="264" y="-120" width="100" height="40" as="geometry" />
        </mxCell>
        <mxCell id="FtYcKHO0fLPF8NyA8b5Q-1" value="Description" style="rounded=0;whiteSpace=wrap;html=1;" parent="1" vertex="1">
          <mxGeometry x="364" y="-120" width="100" height="40" as="geometry" />
        </mxCell>
        <mxCell id="DevgUNL8vZQbwlLUaEUz-1" value="Min_Degree" style="rounded=0;whiteSpace=wrap;html=1;" parent="1" vertex="1">
          <mxGeometry x="464" y="-120" width="100" height="40" as="geometry" />
        </mxCell>
        <mxCell id="0F-_UoY0goJxrbw2aQle-1" value="Max_Degree" style="rounded=0;whiteSpace=wrap;html=1;" parent="1" vertex="1">
          <mxGeometry x="564" y="-120" width="100" height="40" as="geometry" />
        </mxCell>
        <mxCell id="2WNXLnU8BH67RViTWZR8-1" value="Course" style="text;html=1;align=center;verticalAlign=middle;whiteSpace=wrap;rounded=0;" parent="1" vertex="1">
          <mxGeometry x="204" y="-160" width="60" height="30" as="geometry" />
        </mxCell>
        <mxCell id="2WNXLnU8BH67RViTWZR8-2" value="Course_ID" style="rounded=0;whiteSpace=wrap;html=1;" parent="1" vertex="1">
          <mxGeometry x="580" y="40" width="100" height="40" as="geometry" />
        </mxCell>
        <mxCell id="2WNXLnU8BH67RViTWZR8-3" value="" style="line;strokeWidth=1;rotatable=0;dashed=0;labelPosition=right;align=left;verticalAlign=middle;spacingTop=0;spacingLeft=6;points=[];portConstraint=eastwest;" parent="1" vertex="1">
          <mxGeometry x="600" y="70" width="60" height="10" as="geometry" />
        </mxCell>
        <mxCell id="2WNXLnU8BH67RViTWZR8-4" value="" style="endArrow=classic;html=1;rounded=0;exitX=0;exitY=0.25;exitDx=0;exitDy=0;entryX=0.87;entryY=1.075;entryDx=0;entryDy=0;entryPerimeter=0;" parent="1" source="2WNXLnU8BH67RViTWZR8-2" edge="1">
          <mxGeometry width="50" height="50" relative="1" as="geometry">
            <mxPoint x="543.75" y="47" as="sourcePoint" />
            <mxPoint x="214.75" y="-80" as="targetPoint" />
            <Array as="points">
              <mxPoint x="213.75" y="37" />
            </Array>
          </mxGeometry>
        </mxCell>
        <mxCell id="2WNXLnU8BH67RViTWZR8-5" value="Ins_ID" style="rounded=0;whiteSpace=wrap;html=1;" parent="1" vertex="1">
          <mxGeometry x="680" y="40" width="90" height="40" as="geometry" />
        </mxCell>
        <mxCell id="2WNXLnU8BH67RViTWZR8-7" value="" style="line;strokeWidth=1;rotatable=0;dashed=0;labelPosition=right;align=left;verticalAlign=middle;spacingTop=0;spacingLeft=6;points=[];portConstraint=eastwest;" parent="1" vertex="1">
          <mxGeometry x="695" y="70" width="60" height="10" as="geometry" />
        </mxCell>
        <mxCell id="2WNXLnU8BH67RViTWZR8-8" value="" style="endArrow=classic;html=1;rounded=0;entryX=0;entryY=0.25;entryDx=0;entryDy=0;exitX=1;exitY=0.5;exitDx=0;exitDy=0;" parent="1" source="2WNXLnU8BH67RViTWZR8-5" target="hWAsWK3gZAh7LIfFcOfh-2" edge="1">
          <mxGeometry width="50" height="50" relative="1" as="geometry">
            <mxPoint x="610" y="-50" as="sourcePoint" />
            <mxPoint x="660" y="-100" as="targetPoint" />
          </mxGeometry>
        </mxCell>
        <mxCell id="2WNXLnU8BH67RViTWZR8-9" value="F.K&lt;span style=&quot;color: rgba(0, 0, 0, 0); font-family: monospace; font-size: 0px; text-align: start; text-wrap: nowrap;&quot;&gt;%3CmxGraphModel%3E%3Croot%3E%3CmxCell%20id%3D%220%22%2F%3E%3CmxCell%20id%3D%221%22%20parent%3D%220%22%2F%3E%3CmxCell%20id%3D%222%22%20value%3D%22Ins_ID%22%20style%3D%22rounded%3D0%3BwhiteSpace%3Dwrap%3Bhtml%3D1%3B%22%20vertex%3D%221%22%20parent%3D%221%22%3E%3CmxGeometry%20x%3D%22980%22%20y%3D%22140%22%20width%3D%2290%22%20height%3D%2240%22%20as%3D%22geometry%22%2F%3E%3C%2FmxCell%3E%3C%2Froot%3E%3C%2FmxGraphModel%3E&lt;/span&gt;" style="text;html=1;align=center;verticalAlign=middle;whiteSpace=wrap;rounded=0;" parent="1" vertex="1">
          <mxGeometry x="604" y="10" width="60" height="30" as="geometry" />
        </mxCell>
        <mxCell id="2WNXLnU8BH67RViTWZR8-10" value="F.K&lt;span style=&quot;color: rgba(0, 0, 0, 0); font-family: monospace; font-size: 0px; text-align: start; text-wrap: nowrap;&quot;&gt;%3CmxGraphModel%3E%3Croot%3E%3CmxCell%20id%3D%220%22%2F%3E%3CmxCell%20id%3D%221%22%20parent%3D%220%22%2F%3E%3CmxCell%20id%3D%222%22%20value%3D%22Ins_ID%22%20style%3D%22rounded%3D0%3BwhiteSpace%3Dwrap%3Bhtml%3D1%3B%22%20vertex%3D%221%22%20parent%3D%221%22%3E%3CmxGeometry%20x%3D%22980%22%20y%3D%22140%22%20width%3D%2290%22%20height%3D%2240%22%20as%3D%22geometry%22%2F%3E%3C%2FmxCell%3E%3C%2Froot%3E%3C%2FmxGraphModel%3E&lt;/span&gt;" style="text;html=1;align=center;verticalAlign=middle;whiteSpace=wrap;rounded=0;" parent="1" vertex="1">
          <mxGeometry x="695" y="10" width="60" height="30" as="geometry" />
        </mxCell>
        <mxCell id="2WNXLnU8BH67RViTWZR8-11" value="Courses_TeachedBy_Instructor" style="text;html=1;align=center;verticalAlign=middle;whiteSpace=wrap;rounded=0;" parent="1" vertex="1">
          <mxGeometry x="504" y="10" width="60" height="30" as="geometry" />
        </mxCell>
        <mxCell id="2WNXLnU8BH67RViTWZR8-12" value="Course_ID" style="rounded=0;whiteSpace=wrap;html=1;" parent="1" vertex="1">
          <mxGeometry x="2490" y="155" width="100" height="40" as="geometry" />
        </mxCell>
        <mxCell id="2WNXLnU8BH67RViTWZR8-13" value="F.K" style="text;html=1;align=center;verticalAlign=middle;whiteSpace=wrap;rounded=0;" parent="1" vertex="1">
          <mxGeometry x="2510" y="120" width="60" height="30" as="geometry" />
        </mxCell>
        <mxCell id="2WNXLnU8BH67RViTWZR8-14" value="" style="endArrow=classic;html=1;rounded=0;exitX=0.436;exitY=0.02;exitDx=0;exitDy=0;entryX=0.75;entryY=1;entryDx=0;entryDy=0;exitPerimeter=0;" parent="1" source="2WNXLnU8BH67RViTWZR8-12" edge="1">
          <mxGeometry width="50" height="50" relative="1" as="geometry">
            <mxPoint x="2735" y="155" as="sourcePoint" />
            <mxPoint x="264" y="-80" as="targetPoint" />
            <Array as="points">
              <mxPoint x="265" y="-30" />
            </Array>
          </mxGeometry>
        </mxCell>
        <mxCell id="2WNXLnU8BH67RViTWZR8-15" value="Ins_ID" style="rounded=0;whiteSpace=wrap;html=1;" parent="1" vertex="1">
          <mxGeometry x="1300" y="-210" width="90" height="40" as="geometry" />
        </mxCell>
        <mxCell id="2WNXLnU8BH67RViTWZR8-16" value="F.K" style="text;html=1;align=center;verticalAlign=middle;whiteSpace=wrap;rounded=0;" parent="1" vertex="1">
          <mxGeometry x="1320" y="-240" width="60" height="30" as="geometry" />
        </mxCell>
        <mxCell id="2WNXLnU8BH67RViTWZR8-17" value="Question_Degree" style="rounded=0;whiteSpace=wrap;html=1;" parent="1" vertex="1">
          <mxGeometry x="1390" y="-210" width="120" height="40" as="geometry" />
        </mxCell>
        <mxCell id="2WNXLnU8BH67RViTWZR8-18" value="" style="endArrow=classic;html=1;rounded=0;exitX=0.25;exitY=1;exitDx=0;exitDy=0;entryX=0.75;entryY=0;entryDx=0;entryDy=0;" parent="1" source="2WNXLnU8BH67RViTWZR8-15" target="hWAsWK3gZAh7LIfFcOfh-2" edge="1">
          <mxGeometry width="50" height="50" relative="1" as="geometry">
            <mxPoint x="1040" y="90" as="sourcePoint" />
            <mxPoint x="1090" y="40" as="targetPoint" />
          </mxGeometry>
        </mxCell>
        <mxCell id="gSqHgCMhxkrdtrKqMfao-1" value="Pool_ID" style="rounded=0;whiteSpace=wrap;html=1;" parent="1" vertex="1">
          <mxGeometry x="645" y="-290" width="80" height="40" as="geometry" />
        </mxCell>
        <mxCell id="gSqHgCMhxkrdtrKqMfao-2" value="" style="line;strokeWidth=1;rotatable=0;dashed=0;labelPosition=right;align=left;verticalAlign=middle;spacingTop=0;spacingLeft=6;points=[];portConstraint=eastwest;" parent="1" vertex="1">
          <mxGeometry x="655" y="-260" width="60" height="10" as="geometry" />
        </mxCell>
        <mxCell id="gSqHgCMhxkrdtrKqMfao-3" value="Pool_Name" style="rounded=0;whiteSpace=wrap;html=1;" parent="1" vertex="1">
          <mxGeometry x="725" y="-290" width="80" height="40" as="geometry" />
        </mxCell>
        <mxCell id="gSqHgCMhxkrdtrKqMfao-4" value="Selection_Type" style="rounded=0;whiteSpace=wrap;html=1;" parent="1" vertex="1">
          <mxGeometry x="805" y="-290" width="95" height="40" as="geometry" />
        </mxCell>
        <mxCell id="gSqHgCMhxkrdtrKqMfao-5" value="Question_Pool" style="text;html=1;align=center;verticalAlign=middle;whiteSpace=wrap;rounded=0;" parent="1" vertex="1">
          <mxGeometry x="645" y="-320" width="60" height="30" as="geometry" />
        </mxCell>
        <mxCell id="gSqHgCMhxkrdtrKqMfao-6" value="Pool_ID" style="rounded=0;whiteSpace=wrap;html=1;" parent="1" vertex="1">
          <mxGeometry x="1740" y="140" width="80" height="40" as="geometry" />
        </mxCell>
        <mxCell id="gSqHgCMhxkrdtrKqMfao-7" value="" style="endArrow=classic;html=1;rounded=0;exitX=0.648;exitY=-0.045;exitDx=0;exitDy=0;exitPerimeter=0;entryX=0.583;entryY=1;entryDx=0;entryDy=0;entryPerimeter=0;" parent="1" source="gSqHgCMhxkrdtrKqMfao-6" target="gSqHgCMhxkrdtrKqMfao-2" edge="1">
          <mxGeometry width="50" height="50" relative="1" as="geometry">
            <mxPoint x="1440" y="-50" as="sourcePoint" />
            <mxPoint x="1490" y="-100" as="targetPoint" />
          </mxGeometry>
        </mxCell>
        <mxCell id="gSqHgCMhxkrdtrKqMfao-8" value="F.K" style="text;html=1;align=center;verticalAlign=middle;whiteSpace=wrap;rounded=0;" parent="1" vertex="1">
          <mxGeometry x="1770" y="110" width="60" height="30" as="geometry" />
        </mxCell>
        <mxCell id="gSqHgCMhxkrdtrKqMfao-10" value="Pool_ID" style="rounded=0;whiteSpace=wrap;html=1;" parent="1" vertex="1">
          <mxGeometry x="1510" y="-210" width="80" height="40" as="geometry" />
        </mxCell>
        <mxCell id="gSqHgCMhxkrdtrKqMfao-11" value="F.K" style="text;html=1;align=center;verticalAlign=middle;whiteSpace=wrap;rounded=0;" parent="1" vertex="1">
          <mxGeometry x="1550" y="-240" width="60" height="30" as="geometry" />
        </mxCell>
        <mxCell id="gSqHgCMhxkrdtrKqMfao-13" value="" style="endArrow=classic;html=1;rounded=0;entryX=0.25;entryY=1;entryDx=0;entryDy=0;exitX=0.852;exitY=1.025;exitDx=0;exitDy=0;exitPerimeter=0;" parent="1" source="gSqHgCMhxkrdtrKqMfao-10" target="gSqHgCMhxkrdtrKqMfao-1" edge="1">
          <mxGeometry width="50" height="50" relative="1" as="geometry">
            <mxPoint x="1580" y="-130" as="sourcePoint" />
            <mxPoint x="633.4798046875001" y="-220" as="targetPoint" />
            <Array as="points">
              <mxPoint x="1580" y="-120" />
              <mxPoint x="660" y="-150" />
            </Array>
          </mxGeometry>
        </mxCell>
        <mxCell id="gSqHgCMhxkrdtrKqMfao-14" value="Question_ID" style="rounded=0;whiteSpace=wrap;html=1;" parent="1" vertex="1">
          <mxGeometry x="930" y="-90" width="80" height="40" as="geometry" />
        </mxCell>
        <mxCell id="gSqHgCMhxkrdtrKqMfao-15" value="" style="line;strokeWidth=1;rotatable=0;dashed=0;labelPosition=right;align=left;verticalAlign=middle;spacingTop=0;spacingLeft=6;points=[];portConstraint=eastwest;" parent="1" vertex="1">
          <mxGeometry x="940" y="-60" width="60" height="10" as="geometry" />
        </mxCell>
        <mxCell id="gSqHgCMhxkrdtrKqMfao-16" value="" style="endArrow=classic;html=1;rounded=0;entryX=0.333;entryY=1;entryDx=0;entryDy=0;entryPerimeter=0;exitX=0.633;exitY=-0.075;exitDx=0;exitDy=0;exitPerimeter=0;" parent="1" source="gSqHgCMhxkrdtrKqMfao-14" target="HiHw4JsrDSladpEvyTGX-2" edge="1">
          <mxGeometry width="50" height="50" relative="1" as="geometry">
            <mxPoint x="990" y="-100" as="sourcePoint" />
            <mxPoint x="1190" y="-40" as="targetPoint" />
          </mxGeometry>
        </mxCell>
        <mxCell id="gSqHgCMhxkrdtrKqMfao-17" value="F.K" style="text;html=1;align=center;verticalAlign=middle;whiteSpace=wrap;rounded=0;" parent="1" vertex="1">
          <mxGeometry x="980" y="-115" width="60" height="30" as="geometry" />
        </mxCell>
        <mxCell id="gSqHgCMhxkrdtrKqMfao-19" value="Ins_ID" style="rounded=0;whiteSpace=wrap;html=1;" parent="1" vertex="1">
          <mxGeometry x="840" y="-90" width="90" height="40" as="geometry" />
        </mxCell>
        <mxCell id="gSqHgCMhxkrdtrKqMfao-20" value="F.K" style="text;html=1;align=center;verticalAlign=middle;whiteSpace=wrap;rounded=0;" parent="1" vertex="1">
          <mxGeometry x="870" y="-115" width="60" height="30" as="geometry" />
        </mxCell>
        <mxCell id="gSqHgCMhxkrdtrKqMfao-21" value="" style="endArrow=classic;html=1;rounded=0;exitX=0.5;exitY=1;exitDx=0;exitDy=0;entryX=0.25;entryY=1;entryDx=0;entryDy=0;" parent="1" edge="1">
          <mxGeometry width="50" height="50" relative="1" as="geometry">
            <mxPoint x="880" y="-45" as="sourcePoint" />
            <mxPoint x="1000" y="145" as="targetPoint" />
          </mxGeometry>
        </mxCell>
        <mxCell id="gSqHgCMhxkrdtrKqMfao-22" value="" style="line;strokeWidth=1;rotatable=0;dashed=0;labelPosition=right;align=left;verticalAlign=middle;spacingTop=0;spacingLeft=6;points=[];portConstraint=eastwest;" parent="1" vertex="1">
          <mxGeometry x="855" y="-60" width="60" height="10" as="geometry" />
        </mxCell>
        <mxCell id="gSqHgCMhxkrdtrKqMfao-23" value="Instructor_Select_Question" style="text;html=1;align=center;verticalAlign=middle;whiteSpace=wrap;rounded=0;" parent="1" vertex="1">
          <mxGeometry x="780" y="-115" width="60" height="30" as="geometry" />
        </mxCell>
        <mxCell id="gSqHgCMhxkrdtrKqMfao-24" value="Branch_ID" style="rounded=0;whiteSpace=wrap;html=1;" parent="1" vertex="1">
          <mxGeometry x="364" y="470" width="80" height="40" as="geometry" />
        </mxCell>
        <mxCell id="gSqHgCMhxkrdtrKqMfao-25" value="" style="line;strokeWidth=1;rotatable=0;dashed=0;labelPosition=right;align=left;verticalAlign=middle;spacingTop=0;spacingLeft=6;points=[];portConstraint=eastwest;" parent="1" vertex="1">
          <mxGeometry x="374" y="500" width="60" height="10" as="geometry" />
        </mxCell>
        <mxCell id="gSqHgCMhxkrdtrKqMfao-26" value="" style="endArrow=classic;html=1;rounded=0;exitX=0.5;exitY=0;exitDx=0;exitDy=0;entryX=0.623;entryY=1.033;entryDx=0;entryDy=0;entryPerimeter=0;" parent="1" edge="1">
          <mxGeometry width="50" height="50" relative="1" as="geometry">
            <mxPoint x="400" y="469.01" as="sourcePoint" />
            <mxPoint x="-52.61999999999989" y="489.9999999999998" as="targetPoint" />
            <Array as="points">
              <mxPoint x="400" y="289.01" />
              <mxPoint x="10" y="269.01" />
            </Array>
          </mxGeometry>
        </mxCell>
        <mxCell id="gSqHgCMhxkrdtrKqMfao-27" value="Exam_ID" style="rounded=0;whiteSpace=wrap;html=1;" parent="1" vertex="1">
          <mxGeometry x="444" y="470" width="80" height="40" as="geometry" />
        </mxCell>
        <mxCell id="gSqHgCMhxkrdtrKqMfao-28" value="" style="line;strokeWidth=1;rotatable=0;dashed=0;labelPosition=right;align=left;verticalAlign=middle;spacingTop=0;spacingLeft=6;points=[];portConstraint=eastwest;" parent="1" vertex="1">
          <mxGeometry x="454" y="500" width="60" height="10" as="geometry" />
        </mxCell>
        <mxCell id="gSqHgCMhxkrdtrKqMfao-29" value="F.K" style="text;html=1;align=center;verticalAlign=middle;whiteSpace=wrap;rounded=0;" parent="1" vertex="1">
          <mxGeometry x="394" y="440" width="60" height="30" as="geometry" />
        </mxCell>
        <mxCell id="gSqHgCMhxkrdtrKqMfao-30" value="F.K" style="text;html=1;align=center;verticalAlign=middle;whiteSpace=wrap;rounded=0;" parent="1" vertex="1">
          <mxGeometry x="470" y="440" width="60" height="30" as="geometry" />
        </mxCell>
        <mxCell id="gSqHgCMhxkrdtrKqMfao-31" value="" style="endArrow=classic;html=1;rounded=0;exitX=1;exitY=0.5;exitDx=0;exitDy=0;entryX=0;entryY=0.5;entryDx=0;entryDy=0;" parent="1" source="gSqHgCMhxkrdtrKqMfao-27" target="PVdsulRRoyRLGpbpPCfO-1" edge="1">
          <mxGeometry width="50" height="50" relative="1" as="geometry">
            <mxPoint x="605" y="500" as="sourcePoint" />
            <mxPoint x="655" y="450" as="targetPoint" />
          </mxGeometry>
        </mxCell>
        <mxCell id="lJGHb21_FL08jCyipeiL-1" value="Track_ID" style="rounded=0;whiteSpace=wrap;html=1;" parent="1" vertex="1">
          <mxGeometry x="264" y="770" width="80" height="40" as="geometry" />
        </mxCell>
        <mxCell id="lJGHb21_FL08jCyipeiL-2" value="" style="line;strokeWidth=1;rotatable=0;dashed=0;labelPosition=right;align=left;verticalAlign=middle;spacingTop=0;spacingLeft=6;points=[];portConstraint=eastwest;" parent="1" vertex="1">
          <mxGeometry x="274" y="800" width="60" height="10" as="geometry" />
        </mxCell>
        <mxCell id="lJGHb21_FL08jCyipeiL-3" value="" style="endArrow=classic;html=1;rounded=0;exitX=0;exitY=0.5;exitDx=0;exitDy=0;entryX=0.343;entryY=1.145;entryDx=0;entryDy=0;entryPerimeter=0;" parent="1" source="lJGHb21_FL08jCyipeiL-1" target="RYWnw9hEQXMhnf1c4LKz-3" edge="1">
          <mxGeometry width="50" height="50" relative="1" as="geometry">
            <mxPoint x="210" y="540" as="sourcePoint" />
            <mxPoint x="-500" y="360" as="targetPoint" />
            <Array as="points">
              <mxPoint x="220" y="773" />
              <mxPoint x="-490" y="760" />
            </Array>
          </mxGeometry>
        </mxCell>
        <mxCell id="lJGHb21_FL08jCyipeiL-4" value="Exam_Id" style="rounded=0;whiteSpace=wrap;html=1;" parent="1" vertex="1">
          <mxGeometry x="344" y="770" width="80" height="40" as="geometry" />
        </mxCell>
        <mxCell id="lJGHb21_FL08jCyipeiL-5" value="" style="endArrow=classic;html=1;rounded=0;entryX=0;entryY=1;entryDx=0;entryDy=0;" parent="1" target="PVdsulRRoyRLGpbpPCfO-1" edge="1">
          <mxGeometry width="50" height="50" relative="1" as="geometry">
            <mxPoint x="389" y="770" as="sourcePoint" />
            <mxPoint x="439" y="720" as="targetPoint" />
          </mxGeometry>
        </mxCell>
        <mxCell id="lJGHb21_FL08jCyipeiL-6" value="F.K" style="text;html=1;align=center;verticalAlign=middle;whiteSpace=wrap;rounded=0;" parent="1" vertex="1">
          <mxGeometry x="284" y="740" width="60" height="30" as="geometry" />
        </mxCell>
        <mxCell id="lJGHb21_FL08jCyipeiL-7" value="F.K" style="text;html=1;align=center;verticalAlign=middle;whiteSpace=wrap;rounded=0;" parent="1" vertex="1">
          <mxGeometry x="354" y="740" width="60" height="30" as="geometry" />
        </mxCell>
        <mxCell id="lJGHb21_FL08jCyipeiL-8" value="Exams_Assigned to tracks" style="text;html=1;align=center;verticalAlign=middle;whiteSpace=wrap;rounded=0;" parent="1" vertex="1">
          <mxGeometry x="204" y="730" width="60" height="30" as="geometry" />
        </mxCell>
        <mxCell id="lJGHb21_FL08jCyipeiL-9" value="Intake_ID" style="rounded=0;whiteSpace=wrap;html=1;" parent="1" vertex="1">
          <mxGeometry x="-385" y="860" width="80" height="40" as="geometry" />
        </mxCell>
        <mxCell id="lJGHb21_FL08jCyipeiL-10" value="" style="line;strokeWidth=1;rotatable=0;dashed=0;labelPosition=right;align=left;verticalAlign=middle;spacingTop=0;spacingLeft=6;points=[];portConstraint=eastwest;" parent="1" vertex="1">
          <mxGeometry x="-375" y="890" width="60" height="10" as="geometry" />
        </mxCell>
        <mxCell id="lJGHb21_FL08jCyipeiL-11" value="" style="endArrow=classic;html=1;rounded=0;exitX=0.345;exitY=-0.005;exitDx=0;exitDy=0;exitPerimeter=0;entryX=0.5;entryY=1;entryDx=0;entryDy=0;entryPerimeter=0;" parent="1" source="lJGHb21_FL08jCyipeiL-9" target="RYWnw9hEQXMhnf1c4LKz-7" edge="1">
          <mxGeometry width="50" height="50" relative="1" as="geometry">
            <mxPoint x="-310" y="720" as="sourcePoint" />
            <mxPoint x="-260" y="670" as="targetPoint" />
          </mxGeometry>
        </mxCell>
        <mxCell id="lJGHb21_FL08jCyipeiL-12" value="Exam_Id" style="rounded=0;whiteSpace=wrap;html=1;" parent="1" vertex="1">
          <mxGeometry x="-305" y="860" width="80" height="40" as="geometry" />
        </mxCell>
        <mxCell id="lJGHb21_FL08jCyipeiL-13" value="" style="line;strokeWidth=1;rotatable=0;dashed=0;labelPosition=right;align=left;verticalAlign=middle;spacingTop=0;spacingLeft=6;points=[];portConstraint=eastwest;" parent="1" vertex="1">
          <mxGeometry x="-295" y="890" width="60" height="10" as="geometry" />
        </mxCell>
        <mxCell id="lJGHb21_FL08jCyipeiL-14" value="" style="endArrow=classic;html=1;rounded=0;exitX=1;exitY=0.5;exitDx=0;exitDy=0;entryX=0.5;entryY=1;entryDx=0;entryDy=0;entryPerimeter=0;" parent="1" source="lJGHb21_FL08jCyipeiL-12" target="PVdsulRRoyRLGpbpPCfO-3" edge="1">
          <mxGeometry width="50" height="50" relative="1" as="geometry">
            <mxPoint x="-80" y="910" as="sourcePoint" />
            <mxPoint x="1922" y="800" as="targetPoint" />
            <Array as="points">
              <mxPoint x="1920" y="920" />
            </Array>
          </mxGeometry>
        </mxCell>
        <mxCell id="lJGHb21_FL08jCyipeiL-15" value="F.K" style="text;html=1;align=center;verticalAlign=middle;whiteSpace=wrap;rounded=0;" parent="1" vertex="1">
          <mxGeometry x="-360" y="830" width="60" height="30" as="geometry" />
        </mxCell>
        <mxCell id="lJGHb21_FL08jCyipeiL-16" value="F.K" style="text;html=1;align=center;verticalAlign=middle;whiteSpace=wrap;rounded=0;" parent="1" vertex="1">
          <mxGeometry x="-290" y="830" width="60" height="30" as="geometry" />
        </mxCell>
        <mxCell id="lJGHb21_FL08jCyipeiL-17" value="Exams_belongs_to_Intakes" style="text;html=1;align=center;verticalAlign=middle;whiteSpace=wrap;rounded=0;" parent="1" vertex="1">
          <mxGeometry x="-480" y="840" width="60" height="30" as="geometry" />
        </mxCell>
        <mxCell id="lJGHb21_FL08jCyipeiL-18" value="St_ID" style="rounded=0;whiteSpace=wrap;html=1;" parent="1" vertex="1">
          <mxGeometry x="-353" y="-50" width="80" height="40" as="geometry" />
        </mxCell>
        <mxCell id="lJGHb21_FL08jCyipeiL-19" value="" style="line;strokeWidth=1;rotatable=0;dashed=0;labelPosition=right;align=left;verticalAlign=middle;spacingTop=0;spacingLeft=6;points=[];portConstraint=eastwest;" parent="1" vertex="1">
          <mxGeometry x="-343" y="-20" width="60" height="10" as="geometry" />
        </mxCell>
        <mxCell id="lJGHb21_FL08jCyipeiL-20" value="" style="endArrow=classic;html=1;rounded=0;exitX=0;exitY=0.5;exitDx=0;exitDy=0;" parent="1" source="lJGHb21_FL08jCyipeiL-18" edge="1">
          <mxGeometry width="50" height="50" relative="1" as="geometry">
            <mxPoint x="-220" as="sourcePoint" />
            <mxPoint x="-1003.199951171875" y="140" as="targetPoint" />
          </mxGeometry>
        </mxCell>
        <mxCell id="lJGHb21_FL08jCyipeiL-21" value="F.K" style="text;html=1;align=center;verticalAlign=middle;whiteSpace=wrap;rounded=0;" parent="1" vertex="1">
          <mxGeometry x="-333" y="-80" width="60" height="30" as="geometry" />
        </mxCell>
        <mxCell id="lJGHb21_FL08jCyipeiL-22" value="Ins_ID" style="rounded=0;whiteSpace=wrap;html=1;" parent="1" vertex="1">
          <mxGeometry x="-273" y="-50" width="80" height="40" as="geometry" />
        </mxCell>
        <mxCell id="lJGHb21_FL08jCyipeiL-23" value="" style="line;strokeWidth=1;rotatable=0;dashed=0;labelPosition=right;align=left;verticalAlign=middle;spacingTop=0;spacingLeft=6;points=[];portConstraint=eastwest;" parent="1" vertex="1">
          <mxGeometry x="-263" y="-20" width="60" height="10" as="geometry" />
        </mxCell>
        <mxCell id="lJGHb21_FL08jCyipeiL-24" value="" style="endArrow=classic;html=1;rounded=0;exitX=0.5;exitY=1;exitDx=0;exitDy=0;exitPerimeter=0;entryX=0;entryY=0.75;entryDx=0;entryDy=0;" parent="1" source="lJGHb21_FL08jCyipeiL-23" target="hWAsWK3gZAh7LIfFcOfh-2" edge="1">
          <mxGeometry width="50" height="50" relative="1" as="geometry">
            <mxPoint x="45" y="70" as="sourcePoint" />
            <mxPoint x="95" y="20" as="targetPoint" />
          </mxGeometry>
        </mxCell>
        <mxCell id="lJGHb21_FL08jCyipeiL-25" value="F.K" style="text;html=1;align=center;verticalAlign=middle;whiteSpace=wrap;rounded=0;" parent="1" vertex="1">
          <mxGeometry x="-263" y="-80" width="60" height="30" as="geometry" />
        </mxCell>
        <mxCell id="lJGHb21_FL08jCyipeiL-26" value="Exam_Date" style="rounded=0;whiteSpace=wrap;html=1;" parent="1" vertex="1">
          <mxGeometry x="-192.5" y="-50" width="80" height="40" as="geometry" />
        </mxCell>
        <mxCell id="lJGHb21_FL08jCyipeiL-27" value="Start_Time" style="rounded=0;whiteSpace=wrap;html=1;" parent="1" vertex="1">
          <mxGeometry x="-112.5" y="-50" width="80" height="40" as="geometry" />
        </mxCell>
        <mxCell id="lJGHb21_FL08jCyipeiL-28" value="End_Time" style="rounded=0;whiteSpace=wrap;html=1;" parent="1" vertex="1">
          <mxGeometry x="-32.5" y="-50" width="80" height="40" as="geometry" />
        </mxCell>
        <mxCell id="lJGHb21_FL08jCyipeiL-29" value="Students_selected_forExam" style="text;html=1;align=center;verticalAlign=middle;whiteSpace=wrap;rounded=0;" parent="1" vertex="1">
          <mxGeometry x="-460" y="-80" width="60" height="30" as="geometry" />
        </mxCell>
        <mxCell id="lJGHb21_FL08jCyipeiL-32" value="Exam_ID" style="rounded=0;whiteSpace=wrap;html=1;" parent="1" vertex="1">
          <mxGeometry x="2420" y="310" width="80" height="40" as="geometry" />
        </mxCell>
        <mxCell id="lJGHb21_FL08jCyipeiL-33" value="" style="line;strokeWidth=1;rotatable=0;dashed=0;labelPosition=right;align=left;verticalAlign=middle;spacingTop=0;spacingLeft=6;points=[];portConstraint=eastwest;" parent="1" vertex="1">
          <mxGeometry x="2430" y="340" width="60" height="10" as="geometry" />
        </mxCell>
        <mxCell id="lJGHb21_FL08jCyipeiL-34" value="Stud_ID" style="rounded=0;whiteSpace=wrap;html=1;" parent="1" vertex="1">
          <mxGeometry x="2340" y="310" width="80" height="40" as="geometry" />
        </mxCell>
        <mxCell id="lJGHb21_FL08jCyipeiL-35" value="" style="line;strokeWidth=1;rotatable=0;dashed=0;labelPosition=right;align=left;verticalAlign=middle;spacingTop=0;spacingLeft=6;points=[];portConstraint=eastwest;" parent="1" vertex="1">
          <mxGeometry x="2350" y="340" width="60" height="10" as="geometry" />
        </mxCell>
        <mxCell id="lJGHb21_FL08jCyipeiL-36" value="" style="endArrow=classic;html=1;rounded=0;exitX=0.75;exitY=0;exitDx=0;exitDy=0;entryX=0.75;entryY=1;entryDx=0;entryDy=0;" parent="1" source="lJGHb21_FL08jCyipeiL-32" target="PVdsulRRoyRLGpbpPCfO-1" edge="1">
          <mxGeometry width="50" height="50" relative="1" as="geometry">
            <mxPoint x="2510" y="190" as="sourcePoint" />
            <mxPoint x="2560" y="140" as="targetPoint" />
          </mxGeometry>
        </mxCell>
        <mxCell id="lJGHb21_FL08jCyipeiL-37" value="F.K" style="text;html=1;align=center;verticalAlign=middle;whiteSpace=wrap;rounded=0;" parent="1" vertex="1">
          <mxGeometry x="2470" y="280" width="60" height="30" as="geometry" />
        </mxCell>
        <mxCell id="lJGHb21_FL08jCyipeiL-38" value="F.K for studebt_ID" style="text;html=1;align=center;verticalAlign=middle;whiteSpace=wrap;rounded=0;" parent="1" vertex="1">
          <mxGeometry x="2350" y="280" width="60" height="30" as="geometry" />
        </mxCell>
        <mxCell id="lJGHb21_FL08jCyipeiL-39" value="Exams_Token_ByStudents" style="text;html=1;align=center;verticalAlign=middle;whiteSpace=wrap;rounded=0;" parent="1" vertex="1">
          <mxGeometry x="2240" y="290" width="60" height="30" as="geometry" />
        </mxCell>
        <mxCell id="lJGHb21_FL08jCyipeiL-40" value="Answer_ID" style="rounded=0;whiteSpace=wrap;html=1;" parent="1" vertex="1">
          <mxGeometry x="-465" y="-230" width="80" height="40" as="geometry" />
        </mxCell>
        <mxCell id="lJGHb21_FL08jCyipeiL-41" value="" style="line;strokeWidth=1;rotatable=0;dashed=0;labelPosition=right;align=left;verticalAlign=middle;spacingTop=0;spacingLeft=6;points=[];portConstraint=eastwest;" parent="1" vertex="1">
          <mxGeometry x="-455" y="-200" width="60" height="10" as="geometry" />
        </mxCell>
        <mxCell id="lJGHb21_FL08jCyipeiL-42" value="Answer_Text" style="rounded=0;whiteSpace=wrap;html=1;" parent="1" vertex="1">
          <mxGeometry x="-385" y="-230" width="80" height="40" as="geometry" />
        </mxCell>
        <mxCell id="lJGHb21_FL08jCyipeiL-43" value="Answer_Validation" style="rounded=0;whiteSpace=wrap;html=1;" parent="1" vertex="1">
          <mxGeometry x="-305" y="-230" width="135" height="40" as="geometry" />
        </mxCell>
        <mxCell id="lJGHb21_FL08jCyipeiL-45" value="Answer" style="text;html=1;align=center;verticalAlign=middle;whiteSpace=wrap;rounded=0;" parent="1" vertex="1">
          <mxGeometry x="-460" y="-260" width="60" height="30" as="geometry" />
        </mxCell>
        <mxCell id="lJGHb21_FL08jCyipeiL-46" value="Answer_ID" style="rounded=0;whiteSpace=wrap;html=1;" parent="1" vertex="1">
          <mxGeometry x="-850" y="-200" width="80" height="40" as="geometry" />
        </mxCell>
        <mxCell id="lJGHb21_FL08jCyipeiL-47" value="" style="line;strokeWidth=1;rotatable=0;dashed=0;labelPosition=right;align=left;verticalAlign=middle;spacingTop=0;spacingLeft=6;points=[];portConstraint=eastwest;" parent="1" vertex="1">
          <mxGeometry x="-840" y="-170" width="60" height="10" as="geometry" />
        </mxCell>
        <mxCell id="lJGHb21_FL08jCyipeiL-48" value="" style="endArrow=classic;html=1;rounded=0;entryX=0;entryY=0.5;entryDx=0;entryDy=0;exitX=1;exitY=0.5;exitDx=0;exitDy=0;" parent="1" source="lJGHb21_FL08jCyipeiL-46" target="lJGHb21_FL08jCyipeiL-40" edge="1">
          <mxGeometry width="50" height="50" relative="1" as="geometry">
            <mxPoint x="-680" y="60" as="sourcePoint" />
            <mxPoint x="-630" y="10" as="targetPoint" />
          </mxGeometry>
        </mxCell>
        <mxCell id="lJGHb21_FL08jCyipeiL-49" value="F.K" style="text;html=1;align=center;verticalAlign=middle;whiteSpace=wrap;rounded=0;" parent="1" vertex="1">
          <mxGeometry x="-840" y="-230" width="60" height="30" as="geometry" />
        </mxCell>
        <mxCell id="lJGHb21_FL08jCyipeiL-50" value="St_ID" style="rounded=0;whiteSpace=wrap;html=1;" parent="1" vertex="1">
          <mxGeometry x="-930" y="-200" width="80" height="40" as="geometry" />
        </mxCell>
        <mxCell id="lJGHb21_FL08jCyipeiL-51" value="" style="line;strokeWidth=1;rotatable=0;dashed=0;labelPosition=right;align=left;verticalAlign=middle;spacingTop=0;spacingLeft=6;points=[];portConstraint=eastwest;" parent="1" vertex="1">
          <mxGeometry x="-920" y="-170" width="60" height="10" as="geometry" />
        </mxCell>
        <mxCell id="lJGHb21_FL08jCyipeiL-52" value="" style="endArrow=classic;html=1;rounded=0;exitX=0.5;exitY=1;exitDx=0;exitDy=0;exitPerimeter=0;entryX=0.75;entryY=0;entryDx=0;entryDy=0;" parent="1" source="lJGHb21_FL08jCyipeiL-51" target="k8PttnqM8kf9fUnVE_Tl-3" edge="1">
          <mxGeometry width="50" height="50" relative="1" as="geometry">
            <mxPoint x="-680" y="60" as="sourcePoint" />
            <mxPoint x="-1020" y="140" as="targetPoint" />
          </mxGeometry>
        </mxCell>
        <mxCell id="lJGHb21_FL08jCyipeiL-53" value="F.K" style="text;html=1;align=center;verticalAlign=middle;whiteSpace=wrap;rounded=0;" parent="1" vertex="1">
          <mxGeometry x="-910" y="-230" width="60" height="30" as="geometry" />
        </mxCell>
        <mxCell id="lJGHb21_FL08jCyipeiL-54" value="Students_Answer" style="text;html=1;align=center;verticalAlign=middle;whiteSpace=wrap;rounded=0;" parent="1" vertex="1">
          <mxGeometry x="-1005" y="-230" width="60" height="30" as="geometry" />
        </mxCell>
        <mxCell id="lJGHb21_FL08jCyipeiL-55" value="Course_ID" style="rounded=0;whiteSpace=wrap;html=1;" parent="1" vertex="1">
          <mxGeometry x="104" y="-260" width="100" height="40" as="geometry" />
        </mxCell>
        <mxCell id="lJGHb21_FL08jCyipeiL-56" value="" style="line;strokeWidth=1;rotatable=0;dashed=0;labelPosition=right;align=left;verticalAlign=middle;spacingTop=0;spacingLeft=6;points=[];portConstraint=eastwest;" parent="1" vertex="1">
          <mxGeometry x="125" y="-230" width="60" height="10" as="geometry" />
        </mxCell>
        <mxCell id="lJGHb21_FL08jCyipeiL-57" value="" style="endArrow=classic;html=1;rounded=0;exitX=0.583;exitY=1;exitDx=0;exitDy=0;exitPerimeter=0;entryX=0.354;entryY=0.035;entryDx=0;entryDy=0;entryPerimeter=0;" parent="1" source="lJGHb21_FL08jCyipeiL-56" target="BD0YeRxPt6IKmZhTOPkM-9" edge="1">
          <mxGeometry width="50" height="50" relative="1" as="geometry">
            <mxPoint x="110" y="-70" as="sourcePoint" />
            <mxPoint x="160" y="-120" as="targetPoint" />
          </mxGeometry>
        </mxCell>
        <mxCell id="lJGHb21_FL08jCyipeiL-58" value="St_ID" style="rounded=0;whiteSpace=wrap;html=1;" parent="1" vertex="1">
          <mxGeometry x="24" y="-260" width="80" height="40" as="geometry" />
        </mxCell>
        <mxCell id="lJGHb21_FL08jCyipeiL-59" value="" style="endArrow=classic;html=1;rounded=0;exitX=0;exitY=0.75;exitDx=0;exitDy=0;entryX=1;entryY=1;entryDx=0;entryDy=0;" parent="1" source="lJGHb21_FL08jCyipeiL-58" target="vXTvfXUfsogu4SpotkyS-5" edge="1">
          <mxGeometry width="50" height="50" relative="1" as="geometry">
            <mxPoint x="-260" y="-70" as="sourcePoint" />
            <mxPoint x="-954.800048828125" y="70" as="targetPoint" />
          </mxGeometry>
        </mxCell>
        <mxCell id="lJGHb21_FL08jCyipeiL-60" value="" style="line;strokeWidth=1;rotatable=0;dashed=0;labelPosition=right;align=left;verticalAlign=middle;spacingTop=0;spacingLeft=6;points=[];portConstraint=eastwest;" parent="1" vertex="1">
          <mxGeometry x="40" y="-230" width="60" height="10" as="geometry" />
        </mxCell>
        <mxCell id="lJGHb21_FL08jCyipeiL-61" value="Result_ID" style="rounded=0;whiteSpace=wrap;html=1;" parent="1" vertex="1">
          <mxGeometry x="206.25" y="-260" width="80" height="40" as="geometry" />
        </mxCell>
        <mxCell id="lJGHb21_FL08jCyipeiL-62" value="" style="line;strokeWidth=1;rotatable=0;dashed=0;labelPosition=right;align=left;verticalAlign=middle;spacingTop=0;spacingLeft=6;points=[];portConstraint=eastwest;" parent="1" vertex="1">
          <mxGeometry x="213.75" y="-230" width="60" height="10" as="geometry" />
        </mxCell>
        <mxCell id="lJGHb21_FL08jCyipeiL-63" value="F.K" style="text;html=1;align=center;verticalAlign=middle;whiteSpace=wrap;rounded=0;" parent="1" vertex="1">
          <mxGeometry x="34" y="-285" width="60" height="30" as="geometry" />
        </mxCell>
        <mxCell id="lJGHb21_FL08jCyipeiL-65" value="F.K" style="text;html=1;align=center;verticalAlign=middle;whiteSpace=wrap;rounded=0;" parent="1" vertex="1">
          <mxGeometry x="125" y="-285" width="60" height="30" as="geometry" />
        </mxCell>
        <mxCell id="lJGHb21_FL08jCyipeiL-66" value="F.K" style="text;html=1;align=center;verticalAlign=middle;whiteSpace=wrap;rounded=0;" parent="1" vertex="1">
          <mxGeometry x="232.5" y="-285" width="60" height="30" as="geometry" />
        </mxCell>
        <mxCell id="lJGHb21_FL08jCyipeiL-67" value="Result_ID" style="rounded=0;whiteSpace=wrap;html=1;" parent="1" vertex="1">
          <mxGeometry x="24" y="-440" width="80" height="40" as="geometry" />
        </mxCell>
        <mxCell id="lJGHb21_FL08jCyipeiL-68" value="" style="line;strokeWidth=1;rotatable=0;dashed=0;labelPosition=right;align=left;verticalAlign=middle;spacingTop=0;spacingLeft=6;points=[];portConstraint=eastwest;" parent="1" vertex="1">
          <mxGeometry x="34" y="-410" width="60" height="10" as="geometry" />
        </mxCell>
        <mxCell id="lJGHb21_FL08jCyipeiL-69" value="Score" style="rounded=0;whiteSpace=wrap;html=1;" parent="1" vertex="1">
          <mxGeometry x="104" y="-440" width="73.75" height="40" as="geometry" />
        </mxCell>
        <mxCell id="lJGHb21_FL08jCyipeiL-70" value="Result" style="text;html=1;align=center;verticalAlign=middle;whiteSpace=wrap;rounded=0;" parent="1" vertex="1">
          <mxGeometry x="5" y="-470" width="60" height="30" as="geometry" />
        </mxCell>
        <mxCell id="lJGHb21_FL08jCyipeiL-71" value="" style="endArrow=classic;html=1;rounded=0;exitX=0;exitY=0.75;exitDx=0;exitDy=0;entryX=0.613;entryY=0.975;entryDx=0;entryDy=0;entryPerimeter=0;" parent="1" source="lJGHb21_FL08jCyipeiL-66" target="lJGHb21_FL08jCyipeiL-67" edge="1">
          <mxGeometry width="50" height="50" relative="1" as="geometry">
            <mxPoint x="232.75" y="-272.5" as="sourcePoint" />
            <mxPoint x="235.25" y="-380" as="targetPoint" />
          </mxGeometry>
        </mxCell>
        <mxCell id="lJGHb21_FL08jCyipeiL-73" value="Final_Result" style="text;html=1;align=center;verticalAlign=middle;whiteSpace=wrap;rounded=0;" parent="1" vertex="1">
          <mxGeometry x="-20" y="-290" width="60" height="30" as="geometry" />
        </mxCell>
        <mxCell id="whltT4PXQEADHTvq4oza-1" value="Password" style="whiteSpace=wrap;html=1;align=center;" parent="1" vertex="1">
          <mxGeometry x="-100" y="145" width="100" height="40" as="geometry" />
        </mxCell>
        <mxCell id="whltT4PXQEADHTvq4oza-2" value="Password" style="whiteSpace=wrap;html=1;align=center;" parent="1" vertex="1">
          <mxGeometry x="-990" y="460" width="100" height="40" as="geometry" />
        </mxCell>
        <mxCell id="whltT4PXQEADHTvq4oza-8" value="Exams_asscioatedwith_branches" style="text;html=1;align=center;verticalAlign=middle;whiteSpace=wrap;rounded=0;" parent="1" vertex="1">
          <mxGeometry x="284" y="450" width="60" height="30" as="geometry" />
        </mxCell>
        <mxCell id="c5QS96RxlrYLnLApWCw6-1" value="" style="line;strokeWidth=1;rotatable=0;dashed=0;labelPosition=right;align=left;verticalAlign=middle;spacingTop=0;spacingLeft=6;points=[];portConstraint=eastwest;" parent="1" vertex="1">
          <mxGeometry x="354" y="800" width="60" height="10" as="geometry" />
        </mxCell>
        <mxCell id="RwwqEUKgNxhkmb4s_17M-1" value="Manager_Lname" style="whiteSpace=wrap;html=1;align=center;" vertex="1" parent="1">
          <mxGeometry x="-1200" y="460" width="100" height="40" as="geometry" />
        </mxCell>
      </root>
    </mxGraphModel>
  </diagram>
</mxfile>
